<?xml version="1.0" standalone="no"?>
<!DOCTYPE svg PUBLIC "-//W3C//DTD SVG 20010904//EN"
 "http://www.w3.org/TR/2001/REC-SVG-20010904/DTD/svg10.dtd">
<svg version="1.0" xmlns="http://www.w3.org/2000/svg"
 width="544.000000pt" height="544.000000pt" viewBox="0 0 544.000000 544.000000"
 preserveAspectRatio="xMidYMid meet">
<metadata>
Created by potrace 1.14, written by Peter Selinger 2001-2017
</metadata>
<g transform="translate(0.000000,544.000000) scale(0.100000,-0.100000)"
fill="#000000" stroke="none">
<path d="M2213 5429 c-21 -4 -56 -10 -78 -13 -86 -13 -113 -19 -190 -43 -372
-117 -681 -348 -899 -672 -70 -103 -185 -331 -201 -396 -2 -5 -14 -48 -28 -95
-14 -47 -33 -121 -41 -165 -9 -44 -19 -96 -23 -115 -4 -19 -8 -911 -10 -1982
l-4 -1948 251 0 250 0 1 128 c1 70 1 130 1 133 -1 4 5 49 13 100 55 365 297
695 630 862 127 63 331 114 468 116 l47 1 0 251 0 251 -102 -6 c-110 -6 -119
-8 -243 -32 -257 -50 -550 -195 -748 -373 l-62 -55 -3 110 c-1 60 -1 622 1
1249 3 1124 3 1141 25 1232 59 253 172 463 342 633 201 202 435 313 709 336
l81 7 0 249 0 248 -74 -2 c-41 -2 -91 -6 -113 -9z"/>
<path d="M2650 5191 l0 -251 33 -1 c68 -1 233 -19 292 -32 342 -77 660 -272
875 -536 174 -214 300 -504 337 -771 10 -73 10 -328 0 -410 -31 -267 -163
-570 -343 -789 -32 -39 -157 -164 -204 -204 -142 -120 -363 -238 -549 -293
-126 -37 -280 -61 -398 -63 l-43 -1 0 -251 0 -251 108 6 c117 7 187 15 272 31
30 6 165 36 175 39 6 2 15 5 20 6 120 33 311 115 437 188 301 174 572 434 729
700 155 263 248 513 285 767 3 22 8 51 11 65 9 44 11 403 3 470 -34 262 -91
456 -203 690 -30 62 -115 210 -127 220 -3 3 -17 23 -31 45 -14 22 -49 69 -78
105 -306 381 -747 646 -1221 734 -120 22 -142 24 -268 32 l-112 6 0 -251z"/>
</g>
</svg>
