<svg width="698" height="145" viewBox="0 0 698 145" fill="none" xmlns="http://www.w3.org/2000/svg">
<g clip-path="url(#clip0_101_206)">
<mask id="mask0_101_206" style="mask-type:luminance" maskUnits="userSpaceOnUse" x="-105" y="-15" width="2094" height="200">
<path d="M-104.611 184.241H1988.75V-14.9159H-104.611V184.241Z" fill="white"/>
</mask>
<g mask="url(#mask0_101_206)">
<path d="M5.13269 5.21176H138.855V138.937H5.13269V5.21176Z" fill="url(#paint0_linear_101_206)" stroke="black" stroke-width="0.0272433"/>
<path fill-rule="evenodd" clip-rule="evenodd" d="M15.5601 7.06035C12.969 7.06035 11.2756 9.25529 10.8762 12.3185C10.8762 12.3185 7.53571 29.876 7.53571 67.1495C7.53571 104.443 10.8762 128.843 10.8762 128.843C11.1766 131.797 12.969 134.101 15.5601 134.101H131.302C133.893 134.101 135.95 132.051 135.996 128.843C135.996 128.843 134.712 100.264 134.712 72.3516C134.712 44.4361 135.996 12.3185 135.996 12.3185C136.055 9.46655 133.893 7.06035 131.302 7.06035H15.5601Z" fill="url(#paint1_linear_101_206)" stroke="black" stroke-width="0.0272433"/>
<path d="M80.7095 49.8168C80.7392 49.83 80.7722 49.8397 80.8019 49.8496C80.7722 49.8364 80.7392 49.83 80.7095 49.8168Z" fill="url(#paint2_linear_101_206)" stroke="black" stroke-width="0.0272433"/>
<path d="M81.923 18.9942C85.7899 20.6132 101.293 28.9938 103.198 31.6729C95.3891 32.7024 80.0928 36.6882 71.853 40.6915L71.3691 41.6725C80.4536 39.6664 93.1587 38.6238 101.918 38.1443C98.6533 42.9395 96.4845 45.2271 91.5046 50.6602L91.0426 51.7117C100.523 46.0147 103.198 45.601 111.935 40.4935C115.234 45.3723 116.031 56.6257 116.163 65.5386C119.004 59.8899 122.458 38.5711 121.024 34.7218C126.813 30.7492 127.601 27.542 127.601 27.542C122.286 28.0039 119.361 28.0919 116.493 28.9938C109.7 24.8276 94.1266 19.3374 82.3761 18.0088L81.923 18.9942Z" fill="url(#paint3_linear_101_206)" stroke="black" stroke-width="0.0363088"/>
<path d="M24.0373 85.2032C23.2719 92.3125 22.9595 97.3892 23.9802 103.06C21.103 103.86 18.5867 103.971 16.2682 104.96L15.8283 105.933C19.5149 108.207 22.5152 109.945 26.6813 111.898C28.9118 116.685 31.2214 119.918 34.952 123.596L35.4051 122.615C34.732 119.887 33.8654 117.648 34.1953 114.661C38.8234 116.02 42.8047 116.728 48.075 116.891L48.5238 115.906C43.8825 114.098 39.2413 112.686 35.4887 109.144C36.6677 105.858 38.0183 103.284 40.2267 100.033L40.6931 99.0259C36.6985 99.6286 33.0911 101.089 29.642 101.762C26.9145 96.989 25.8675 90.4428 24.4949 84.2178L24.0373 85.2032Z" fill="url(#paint4_linear_101_206)" stroke="black" stroke-width="0.0363088"/>
<path d="M47.7051 52.8072C47.7051 52.8072 44.718 52.5303 39.782 52.6753C35.6027 52.8684 29.3778 53.2428 26.3554 54.1226L25.9155 55.0993C30.7195 55.306 37.314 56.5949 39.8392 59.1289C39.8392 59.1289 32.8312 65.4771 25.7748 79.1633C25.5985 79.5108 25.4757 79.788 25.2908 80.1487C25.2908 80.1487 38.4227 67.8264 44.1154 64.7733C44.1154 64.7733 47.0849 74.6981 49.1569 79.6605L49.61 78.6663C50.1776 75.4812 51.6029 66.8277 54.0269 61.5266C54.0269 61.5266 54.8892 61.0074 59.0729 60.6027C63.2918 60.2199 69.2396 60.0045 80.5326 61.9842L80.9945 61.0074C78.4385 59.5073 68.3465 55.174 57.5859 53.6606C59.0729 49.2746 60.9691 45.9135 60.9691 45.9135C58.6638 46.2304 52.0956 49.3098 47.7051 52.8072Z" fill="url(#paint5_linear_101_206)" stroke="black" stroke-width="0.0363088"/>
<path d="M75.2004 113.662C75.0377 111.736 74.9146 110.095 74.8133 107.926C72.53 111.023 70.5812 113.464 68.0692 116.293C65.412 117.028 62.3765 116.997 59.6094 116.971C58.4963 116.957 57.4273 116.951 56.4463 116.984L56.002 117.969C58.5887 119.298 61.1227 120.112 63.8238 120.67C61.6286 122.663 58.7031 124.19 56.6442 125.571L56.1823 126.548C60.608 125.505 66.415 123.631 70.7439 121.075C72.9963 121.176 75.0992 121.027 76.6433 120.719C76.6433 120.719 77.1141 119.707 77.1141 119.733C76.8236 118.735 75.9438 118.128 75.6799 116.729C79.736 113.583 82.6704 110.71 86.0666 107.297L86.5417 106.316C83.1851 108.625 79.1158 111.797 75.2004 113.662Z" fill="url(#paint6_linear_101_206)" stroke="black" stroke-width="0.0363088"/>
<path d="M112.382 39.4907C103.662 44.6203 101.001 45.0558 91.5072 50.7265C97.0283 44.7347 98.9508 42.1875 102.369 37.1723C93.6188 37.6343 80.9181 38.6857 71.8512 40.6962C79.7435 36.4772 95.4049 31.7876 103.662 30.6702C101.749 28.0262 86.2368 19.628 82.3787 18.0091C94.6571 18.9681 109.667 23.5478 116.944 28.0042C119.808 27.1068 122.782 27.0628 128.114 26.5921C126.759 28.9237 126.693 30.2655 121.466 33.7321C122.914 37.6079 119.456 58.9048 116.605 64.5491C116.495 55.6361 115.721 44.3871 112.382 39.4907Z" fill="white"/>
<path d="M48.5227 115.905C43.5163 114.044 39.9045 111.884 35.9275 108.162C37.1197 104.885 38.4747 102.32 40.6964 99.0249C36.6182 99.632 33.6135 100.094 30.1029 100.763C27.2478 95.7607 25.95 90.9346 24.4894 84.2169C23.7151 91.335 23.4204 96.4206 24.4234 102.091C21.1987 102.984 18.9287 103.767 16.2715 104.964C19.9801 107.234 22.9892 108.981 27.129 110.916C29.3638 115.698 31.6602 118.932 35.404 122.618C34.5286 119.477 34.2998 116.983 34.6605 113.683C39.293 115.034 43.2611 115.742 48.5227 115.905Z" fill="white"/>
<path d="M61.572 45.0649C60.0102 47.0929 58.2021 50.8719 57.7138 52.6272C70.6301 54.3781 80.9904 61.0123 80.9904 61.0123C69.7018 59.0106 63.7452 59.2613 59.5307 59.6353C55.3426 60.0312 54.4803 60.5239 54.4803 60.5239C51.436 67.1976 49.6103 78.6666 49.6103 78.6666C47.5515 73.713 44.582 63.7838 44.582 63.7838C38.8805 66.8325 25.775 79.1637 25.775 79.1637C32.9767 64.7296 40.2971 58.1615 40.2971 58.1615C37.7763 55.6099 31.1773 54.3429 26.3513 54.123C28.8589 53.1068 35.2863 51.9101 40.2267 51.6814C45.1715 51.545 48.163 51.8222 48.163 51.8222C52.5754 48.3423 59.2668 45.4036 61.572 45.0649Z" fill="white"/>
<path d="M75.2754 106.958C72.9966 110.051 71.0345 112.483 68.5005 115.303C64.1584 116.526 60.6918 116.984 56.4465 116.984C59.0508 118.321 61.5716 119.122 64.286 119.694C61.5716 122.149 59.2796 123.904 56.6444 125.567C61.0613 124.533 66.8684 122.655 71.1885 120.099C73.4453 120.187 75.5614 120.041 77.1099 119.733C76.7052 118.427 76.4544 117.45 76.1289 115.743C80.1938 112.593 83.1545 109.738 86.542 106.316C82.9389 108.823 79.8287 110.702 75.6537 112.673C75.4734 110.759 75.3722 109.122 75.2754 106.958Z" fill="white"/>
<path d="M367.465 102.917C366.592 102.318 365.385 101.578 363.904 101.578C362.225 101.578 360.611 102.725 360.611 107.762C360.611 112.147 361.986 113.663 363.6 113.663C365.346 113.663 366.692 112.276 367.465 111.256V102.917ZM374.08 115.838C373.077 116.717 371.864 117.216 370.658 117.216C369.383 117.216 368.206 116.552 368.037 114.563C366.592 116.038 364.877 117.151 362.425 117.151C359.575 117.151 356.787 114.702 356.787 107.957C356.787 101.041 359.808 98.5562 363.095 98.5562C364.612 98.5562 365.883 98.8276 367.465 99.5653V92.4071C368.672 92.1474 369.882 91.9084 371.127 91.6075V113.123C371.127 113.89 371.463 114.165 371.932 114.165C372.437 114.165 373.275 113.826 373.841 113.424L374.08 115.838Z" fill="#140F14"/>
<path d="M381.585 92.446L378.764 100.537L376.309 99.9995L378.123 91.909L381.585 92.446Z" fill="#140F14"/>
<path d="M384.344 111.388V98.9603H388.009V110.751C388.009 113.223 389.416 113.758 391.063 113.758C392.671 113.758 394.084 113.223 394.084 110.751V98.9603H397.743V111.388C397.743 115.581 394.453 117.151 391.063 117.151C387.637 117.151 384.344 115.581 384.344 111.388Z" fill="#140F14"/>
<path d="M405.247 100.807C406.763 99.6618 408.54 98.5554 411.092 98.5554C414.287 98.5554 416.297 100.305 416.297 104.203V116.811H412.638V105.171C412.638 102.993 411.496 102.052 409.714 102.052C408.339 102.052 406.996 102.725 405.89 103.456V116.811H402.222V98.9596H405.247V100.807Z" fill="#140F14"/>
<path d="M431.666 100.807C433.041 99.6618 434.891 98.5554 437.272 98.5554C439.293 98.5554 440.598 99.2311 441.506 100.638C443.318 99.4612 445.068 98.5554 447.213 98.5554C450.408 98.5554 452.22 100.305 452.22 104.203V116.811H448.558V105.171C448.558 102.949 447.688 101.987 445.873 101.987C444.664 101.987 443.253 102.657 442.179 103.326C442.241 103.695 442.279 104.436 442.279 104.938V116.811H438.615V105.74C438.615 103.223 438.149 101.987 435.933 101.987C434.658 101.987 433.413 102.618 432.336 103.326V116.811H428.677V98.9596H431.666V100.807Z" fill="#140F14"/>
<path d="M459.531 107.895C459.531 112.752 460.738 114.266 463.151 114.266C465.574 114.266 466.751 112.752 466.751 107.954C466.751 102.991 465.574 101.478 463.151 101.478C460.738 101.478 459.531 102.991 459.531 107.895ZM470.513 107.954C470.513 114.165 467.958 117.216 463.151 117.216C458.451 117.216 455.763 114.564 455.763 107.895C455.763 101.342 458.354 98.5566 463.151 98.5566C468.162 98.5566 470.513 101.209 470.513 107.954Z" fill="#140F14"/>
<path d="M477.242 100.807C478.752 99.6618 480.534 98.5554 483.081 98.5554C486.279 98.5554 488.295 100.305 488.295 104.203V116.811H484.63V105.171C484.63 102.993 483.491 102.052 481.706 102.052C480.331 102.052 478.988 102.725 477.876 103.456V116.811H474.22V98.9596H477.242V100.807Z" fill="#140F14"/>
<path d="M502.851 102.917C501.977 102.318 500.767 101.578 499.286 101.578C497.61 101.578 495.996 102.725 495.996 107.762C495.996 112.147 497.374 113.663 498.985 113.663C500.732 113.663 502.075 112.276 502.851 111.256V102.917ZM509.466 115.838C508.46 116.717 507.253 117.216 506.037 117.216C504.766 117.216 503.585 116.552 503.42 114.563C501.977 116.038 500.26 117.151 497.808 117.151C494.958 117.151 492.169 114.702 492.169 107.957C492.169 101.041 495.191 98.5562 498.484 98.5562C499.991 98.5562 501.269 98.8276 502.851 99.5653V92.4071C504.057 92.1474 505.267 91.9084 506.512 91.6075V113.123C506.512 113.89 506.849 114.165 507.315 114.165C507.822 114.165 508.663 113.826 509.23 113.424L509.466 115.838Z" fill="#140F14"/>
<path d="M521.402 105.878C521.402 102.824 520.46 101.75 518.413 101.75C516.365 101.75 515.288 102.724 515.123 105.878H521.402ZM515.087 108.705C515.152 113.222 516.867 113.957 519.451 113.957C521.402 113.957 523.08 112.883 524.122 112.11L524.692 115.302C523.08 116.311 521.402 117.217 518.714 117.217C514.282 117.217 511.26 114.603 511.26 107.896C511.26 101.278 513.916 98.5547 518.481 98.5547C523.119 98.5547 524.931 101.576 524.931 106.046V108.705H515.087Z" fill="#140F14"/>
<path d="M546.276 103.296C545.37 102.688 544.192 101.957 542.785 101.957C540.796 101.957 539.421 103.6 539.421 107.999C539.421 112.782 540.935 113.791 542.478 113.791C544.125 113.791 545.402 112.753 546.276 111.759V103.296ZM546.276 115.231C545.033 116.238 543.552 117.217 541.64 117.217C538.616 117.217 535.597 115.231 535.597 107.955C535.597 101.039 538.749 98.5546 542.044 98.5546C543.824 98.5546 545.334 99.363 546.91 100.34V98.9588H549.902V123.732C548.692 123.995 547.479 124.234 546.276 124.543V115.231Z" fill="#140F14"/>
<path d="M554.142 111.388V98.9603H557.807V110.751C557.807 113.223 559.22 113.758 560.863 113.758C562.477 113.758 563.888 113.223 563.888 110.751V98.9603H567.547V111.388C567.547 115.581 564.257 117.151 560.863 117.151C557.435 117.151 554.142 115.581 554.142 111.388Z" fill="#140F14"/>
<path d="M575.656 116.81H571.994V98.9586H575.656V116.81ZM575.656 96.5745H571.994V92.7535H575.656V96.5745Z" fill="#140F14"/>
<path d="M596.892 104.972C596.791 103.223 596.051 101.78 594.038 101.78C591.69 101.78 590.813 102.854 590.813 107.896C590.813 112.815 592.224 113.892 594.773 113.892C597.027 113.892 598.438 112.989 599.479 112.243L600.185 115.305C598.571 116.308 596.824 117.217 594.239 117.217C589.604 117.217 586.984 114.668 586.984 107.861C586.984 100.977 589.238 98.5576 594.168 98.5576C598.47 98.5576 600.12 101.178 600.185 104.633C599.072 104.742 597.998 104.839 596.892 104.972Z" fill="#140F14"/>
<path d="M607.383 91.6057V100.275C608.726 99.4277 610.307 98.5573 612.555 98.5573C615.78 98.5573 617.793 100.275 617.793 104.169V116.813H614.137V105.17C614.137 102.992 613.025 102.151 611.177 102.151C609.835 102.151 608.487 102.756 607.383 103.364V116.813H603.721V92.4112L607.383 91.6057Z" fill="#140F14"/>
<path d="M630.99 108.703C627.6 108.703 625.18 109.81 625.18 112.005C625.18 113.46 626.187 113.994 627.331 113.994C628.839 113.994 630.117 112.92 630.99 111.757V108.703ZM630.99 103.932C630.99 102.118 629.916 101.448 628.399 101.448C626.724 101.448 625.514 102.487 625.481 104.337L622.259 104C622.46 100.4 625.251 98.5563 628.641 98.5563C632.3 98.5563 634.649 100.442 634.649 103.661V113.123C634.649 113.894 635.018 114.13 635.49 114.13C635.962 114.13 636.8 113.826 637.369 113.424L637.641 115.835C636.596 116.717 635.392 117.216 634.183 117.216C632.905 117.216 631.695 116.511 631.527 114.56C629.916 116.31 627.966 117.216 626.086 117.216C623.667 117.216 621.622 115.708 621.622 112.489C621.622 107.927 626.387 106.249 630.99 106.151V103.932Z" fill="#140F14"/>
<path d="M643.303 100.807C644.816 99.6618 646.596 98.5554 649.148 98.5554C652.343 98.5554 654.353 100.305 654.353 104.203V116.811H650.691V105.171C650.691 102.993 649.549 102.052 647.767 102.052C646.392 102.052 645.05 102.725 643.94 103.456V116.811H640.281V98.9596H643.303V100.807Z" fill="#140F14"/>
<path d="M662.109 105.308C662.109 107.825 663.219 109.271 665.033 109.271C666.777 109.271 667.822 107.825 667.822 105.376C667.822 102.553 666.777 101.31 665.033 101.31C663.219 101.31 662.109 102.656 662.109 105.308ZM663.186 117.046C662.109 117.548 660.767 118.527 660.767 119.601C660.767 121.115 662.581 121.649 664.626 121.649C666.875 121.649 669.297 120.776 669.297 119.333C669.297 117.276 665.939 117.453 663.186 117.046ZM667.583 98.9588H673.496L673.36 101.847L670.474 101.446C671.144 102.455 671.51 103.792 671.51 105.376C671.51 109.41 668.896 112.077 665.033 112.077C664.06 112.077 663.419 112.042 662.646 111.723C662.109 111.936 661.676 112.349 661.676 112.85C661.676 115.544 673.496 112.216 673.496 118.934C673.496 122.623 668.863 124.541 664.464 124.541C660.029 124.541 657.07 122.927 657.07 120.274C657.07 118.557 658.619 116.949 660.501 116.179C659.46 115.745 658.619 115.034 658.619 113.791C658.619 112.549 659.625 111.292 660.731 110.584C659.256 109.439 658.448 107.787 658.448 105.308C658.448 101.181 661.068 98.5546 665.063 98.5546C666.004 98.5546 666.842 98.6932 667.583 98.9588Z" fill="#140F14"/>
<path d="M685.601 105.878C685.601 102.824 684.66 101.75 682.609 101.75C680.561 101.75 679.49 102.724 679.322 105.878H685.601ZM679.284 108.705C679.355 113.222 681.066 113.957 683.654 113.957C685.601 113.957 687.28 112.883 688.322 112.11L688.891 115.302C687.28 116.311 685.601 117.217 682.913 117.217C678.481 117.217 675.457 114.603 675.457 107.896C675.457 101.278 678.11 98.5547 682.677 98.5547C687.312 98.5547 689.124 101.576 689.124 106.046V108.705H679.284Z" fill="#140F14"/>
<path d="M203.893 93.2842V113.59H212.317V116.809H200.263V93.2842H203.893Z" fill="#140F14"/>
<path d="M225.194 108.703C221.803 108.703 219.384 109.807 219.384 112.005C219.384 113.46 220.39 113.994 221.529 113.994C223.046 113.994 224.32 112.92 225.194 111.757V108.703ZM225.194 103.932C225.194 102.118 224.12 101.448 222.606 101.448C220.927 101.448 219.717 102.487 219.688 104.337L216.463 103.994C216.666 100.4 219.455 98.5563 222.842 98.5563C226.501 98.5563 228.855 100.439 228.855 103.661V113.123C228.855 113.894 229.221 114.124 229.699 114.124C230.168 114.124 231.006 113.826 231.576 113.424L231.847 115.835C230.806 116.717 229.596 117.216 228.38 117.216C227.108 117.216 225.899 116.511 225.734 114.56C224.12 116.31 222.172 117.216 220.29 117.216C217.873 117.216 215.825 115.708 215.825 112.489C215.825 107.927 220.594 106.249 225.194 106.145V103.932Z" fill="#140F14"/>
<path d="M245.262 113.057C246.269 113.756 247.31 114.166 248.452 114.166C250.538 114.166 252.152 112.549 252.152 107.69C252.152 102.948 250.603 101.957 248.856 101.957C247.413 101.957 246.44 102.517 245.262 103.223V113.057ZM245.262 91.606V100.101C246.705 99.2304 248.216 98.5547 250.134 98.5547C253.022 98.5547 255.941 100.337 255.941 107.69C255.941 114.898 252.317 117.217 248.287 117.217C245.968 117.217 243.516 116.341 241.601 114.898V92.4086L245.262 91.606Z" fill="#140F14"/>
<path d="M268.451 108.703C265.06 108.703 262.638 109.807 262.638 112.005C262.638 113.46 263.647 113.994 264.789 113.994C266.3 113.994 267.577 112.92 268.451 111.757V108.703ZM268.451 103.932C268.451 102.118 267.376 101.448 265.866 101.448C264.184 101.448 262.974 102.487 262.942 104.337L259.72 103.994C259.923 100.4 262.712 98.5563 266.102 98.5563C269.758 98.5563 272.112 100.439 272.112 103.661V113.123C272.112 113.894 272.481 114.124 272.953 114.124C273.425 114.124 274.26 113.826 274.83 113.424L275.101 115.835C274.06 116.717 272.853 117.216 271.643 117.216C270.365 117.216 269.159 116.511 268.99 114.56C267.376 116.31 265.426 117.216 263.547 117.216C261.127 117.216 259.082 115.708 259.082 112.489C259.082 107.927 263.851 106.249 268.451 106.145V103.932Z" fill="#140F14"/>
<path d="M280.186 100.807C281.697 99.6618 283.479 98.5554 286.029 98.5554C289.221 98.5554 291.236 100.305 291.236 104.203V116.811H287.575V105.174C287.575 102.993 286.433 102.052 284.651 102.052C283.276 102.052 281.933 102.725 280.827 103.456V116.811H277.165V98.9596H280.186V100.807Z" fill="#140F14"/>
<path d="M305.457 103.294C304.548 102.689 303.374 101.954 301.966 101.954C299.977 101.954 298.602 103.601 298.602 107.997C298.602 112.783 300.116 113.792 301.659 113.792C303.306 113.792 304.58 112.753 305.457 111.756V103.294ZM305.457 115.232C304.215 116.238 302.733 117.218 300.821 117.218C297.8 117.218 294.779 115.232 294.779 107.956C294.779 101.039 297.933 98.555 301.226 98.555C303.002 98.555 304.515 99.3635 306.094 100.34V98.9592H309.086V123.733C307.873 123.995 306.664 124.234 305.457 124.544V115.232Z" fill="#140F14"/>
<path d="M313.328 111.388V98.9603H316.989V110.751C316.989 113.223 318.4 113.758 320.043 113.758C321.657 113.758 323.068 113.223 323.068 110.751V98.9603H326.726V111.388C326.726 115.581 323.439 117.151 320.043 117.151C316.621 117.151 313.328 115.581 313.328 111.388Z" fill="#140F14"/>
<path d="M340.212 105.883C340.212 102.823 339.271 101.749 337.22 101.749C335.175 101.749 334.098 102.726 333.93 105.883H340.212ZM333.895 108.704C333.96 113.221 335.677 113.956 338.262 113.956C340.212 113.956 341.891 112.882 342.933 112.109L343.499 115.301C341.891 116.31 340.212 117.216 337.521 117.216C333.089 117.216 330.071 114.605 330.071 107.895C330.071 101.277 332.724 98.5537 337.288 98.5537C341.923 98.5537 343.738 101.578 343.738 106.048V108.704H333.895Z" fill="#140F14"/>
<path d="M216.488 29.3318C225.751 29.4092 229.148 31.2941 229.148 36.3369C229.148 37.7295 228.719 38.9674 227.903 39.9098C226.123 42.0444 222.67 43.1486 218.257 42.8708H218.035L215.443 49.6157H218.035C223.148 49.468 227.593 51.0822 229.879 53.8744C230.938 55.1439 231.465 56.6771 231.465 58.235C231.465 63.5064 226.82 66.2353 217.659 66.2353C216.115 66.2353 213.604 66.2353 212.043 66.1826C211.782 59.1423 211.663 49.6157 211.663 46.7462C211.663 43.4229 211.881 36.0169 212.043 29.687C213.105 29.4725 214.853 29.3318 216.488 29.3318ZM199.323 24.4824C199.611 29.4865 199.903 42.1323 199.903 46.7462C199.903 50.9907 199.896 65.2155 199.154 71.352L199.105 71.8338H221.337C232.256 71.8338 243.812 68.4367 243.812 58.7343C243.812 52.6611 239.416 48.1704 231.191 45.7193C237.292 44.077 241.357 39.9098 241.357 35.1413C241.357 27.2218 232.256 24.2432 223.707 24.0322H199.196L199.323 24.4824Z" fill="#140F14"/>
<path d="M295.111 24.0327H284.294L284.734 36.0877C284.945 42.0448 285.145 48.1743 285.567 54.1209C284.864 52.2571 284.213 51.2971 280.929 46.5145C280.914 46.3457 269.675 29.0544 265.772 24.1417L265.659 24.0327H253.112V24.4793C253.509 29.4834 253.671 42.1328 253.671 46.7431C253.671 50.9947 253.671 65.2159 253.07 71.3524L252.961 71.8342H264.147V71.3524C263.511 59.6878 263.511 47.9141 263.511 36.4921C263.901 37.8776 264.397 39.0663 266.155 41.6756C266.299 41.9815 285.567 70.0302 286.499 71.6338L286.601 71.8342H295.558L295.547 71.3524C294.861 65.2159 294.802 50.9947 294.802 46.7431C294.802 42.1328 295.111 29.4834 295.403 24.4793L295.547 24.0327H295.111Z" fill="#140F14"/>
<path d="M324.446 29.8014C330.681 29.6889 335.031 30.9478 337.092 33.5642C338.041 34.693 338.569 36.1771 338.569 37.8756C338.569 44.7963 330.783 46.2979 324.28 46.2979L321.639 46.1467C321.639 46.1467 321.017 46.0834 320.553 46.0342C320.507 44.4376 320.507 42.3312 320.507 39.9645C320.507 36.9577 320.507 33.3884 320.648 30.0792C321.566 29.9561 322.951 29.8014 324.446 29.8014ZM308.044 24.4807C308.484 29.4814 308.649 42.1307 308.649 46.741C308.649 50.9926 308.649 65.2139 307.991 71.3504V71.8357H321.298L321.239 71.3504C320.785 66.9405 320.553 58.5217 320.507 52.0863C321.133 52.1215 323.018 52.2164 323.018 52.2164L324.903 52.2586C342.405 52.2586 350.915 47.6237 350.915 37.8756C350.915 26.7877 338.973 24.2416 329.017 24.0306H308.044V24.4807Z" fill="#140F14"/>
<path d="M392.691 29.8014C398.936 29.6889 403.283 30.9478 405.379 33.5642C406.335 34.693 406.821 36.1771 406.821 37.8756C406.821 44.7963 399.045 46.2979 392.627 46.2979L389.993 46.1467C389.993 46.1467 389.297 46.0834 388.886 46.0342C388.812 44.4376 388.812 42.3171 388.812 39.9645C388.812 36.9261 388.812 33.3884 388.935 30.0792C389.768 29.9561 391.21 29.8014 392.691 29.8014ZM376.314 24.4807C376.732 29.4814 376.975 42.1307 376.975 46.741C376.975 50.9926 376.933 65.2139 376.24 71.3504V71.8357H389.557L389.476 71.3504C389.054 66.9405 388.812 58.5217 388.812 52.0863C389.431 52.1215 391.21 52.2164 391.21 52.2164L393.137 52.2586C410.629 52.2586 419.22 47.6237 419.22 37.8756C419.22 26.7877 407.211 24.2416 397.22 24.0306H376.314V24.4807Z" fill="#140F14"/>
<path d="M440.254 38.1123C441.312 40.3875 444.059 46.7421 447.15 54.3274C446.671 54.3485 446.074 54.3485 446.074 54.3485L440.254 54.4294C440.254 54.4294 434.226 54.3485 433.224 54.3274C435.735 48.2648 438.228 42.7859 440.254 38.1123ZM437.015 24.0317H436.842L436.747 24.2743C434.272 31.0755 418.313 65.9042 415.785 71.2389L415.574 71.8367H426.908L427.003 71.5765C428.002 68.292 429.341 64.596 430.801 60.6503C431.255 60.6503 440.254 60.5167 440.254 60.5167L448.082 60.573C448.082 60.573 449.344 60.6503 449.72 60.6503C451.739 65.7916 453.283 69.6635 453.958 71.6328L454.088 71.8367H467.219L446.003 24.0317H445.74H437.015Z" fill="#140F14"/>
<path d="M472.555 24.4809C472.935 29.4851 473.128 42.1309 473.128 46.7447C473.128 50.9928 473.128 65.2176 472.4 71.3541V71.8359H485.784L485.728 71.3541C485.021 65.1754 484.972 50.9928 484.972 46.7447C484.972 43.4215 485.074 36.0155 485.405 30.0302C486.421 29.9563 487.972 29.8016 489.02 29.8016C495.205 29.6855 499.584 30.9656 501.634 33.5679C502.611 34.6897 503.058 36.2054 503.058 37.8758C503.058 43.3969 497.906 46.1961 493.102 46.4458C491.495 46.5126 490.3 46.3051 490.3 46.3051L489.364 46.1434L489.878 47.019C494.632 53.9503 501.736 65.9561 504.669 71.6319L504.76 71.8359H519.055L518.7 71.1888C518.116 70.387 508.804 56.6792 504.848 50.8205C504.848 50.8205 504.669 50.6517 504.5 50.4653C511.832 48.2674 515.373 44.167 515.373 37.8758C515.373 26.8652 503.434 24.2488 493.356 24.0343H472.516L472.555 24.4809Z" fill="#140F14"/>
<path d="M537.98 24.0327H525.236L525.306 24.4793C525.637 29.4834 525.893 42.1328 525.893 46.7431C525.893 50.9736 525.83 65.1772 525.236 71.3524L525.187 71.8342H538.399L538.328 71.3524C537.822 65.1772 537.66 50.9736 537.66 46.7431C537.66 42.1328 537.98 29.4834 538.328 24.4793V24.0327H537.98Z" fill="#140F14"/>
<path d="M567.602 29.3318C576.938 29.4092 580.332 31.2941 580.332 36.3369C580.332 37.7295 579.906 38.9674 579.055 39.9098C577.374 42.0444 573.777 43.1486 569.402 42.8708H569.188L566.617 49.6157H569.188C574.322 49.468 578.725 51.0822 581.007 53.8744C582.122 55.1439 582.649 56.6771 582.649 58.235C582.649 63.5064 577.983 66.2353 568.773 66.2353C567.292 66.2353 564.802 66.2353 563.241 66.1826C562.858 59.1423 562.858 49.6157 562.858 46.7462C562.858 43.4229 562.981 36.0169 563.241 29.687C564.247 29.4725 566.001 29.3318 567.602 29.3318ZM550.444 24.4824C550.827 29.4865 551.063 42.1323 551.063 46.7462C551.063 50.9907 551.063 65.2155 550.388 71.352L550.282 71.8338H572.542C583.43 71.8338 595.017 68.4367 595.017 58.7343C595.017 52.6611 590.611 48.1704 582.315 45.7193C588.427 44.077 592.541 39.9098 592.541 35.1413C592.541 27.2218 583.43 24.2432 574.951 24.0322H550.388L550.444 24.4824Z" fill="#140F14"/>
<path d="M622.249 38.0856C623.325 40.3116 626.047 46.6767 629.142 54.2761C628.674 54.2761 628.094 54.3289 628.094 54.3289L622.249 54.4062C622.249 54.4062 616.155 54.2761 615.247 54.2761C617.727 48.1713 620.153 42.7345 622.249 38.0856ZM627.752 24.0331H618.799L618.743 24.2476C616.07 31.4848 599.212 68.1492 597.794 71.1911L597.548 71.8347H608.939L609.009 71.5498C609.958 68.2758 611.284 64.5974 612.765 60.5744C613.127 60.5744 622.182 60.4302 622.182 60.4302L630.021 60.5568C630.021 60.5568 631.385 60.5744 631.684 60.5744C633.745 65.7122 635.271 69.6192 635.939 71.5498L636.059 71.8347H649.239L628.041 24.0331H627.752Z" fill="#140F14"/>
<path d="M652.971 36.3956C652.971 44.7933 661.379 48.1728 668.835 51.2604C674.627 53.5708 680.696 56.0043 680.696 60.0098C680.696 61.2195 680.461 62.2358 679.778 62.9567C678.382 64.5954 675.558 65.2882 671.082 65.0421C666.64 64.8627 661.636 63.4631 655.999 60.8678L653.798 59.8058V61.6626V70.2221L655.306 70.6018L656.178 70.7531C658.956 71.4423 664.326 72.7048 669.661 72.7048C683.696 72.7048 692.076 67.1098 692.076 57.8505C692.076 49.161 683.429 45.7744 675.791 42.7326C670.153 40.4503 664.326 38.1891 664.326 34.4614C664.326 33.3889 664.326 30.252 671.599 30.252C676.958 30.252 682.166 32.4288 685.127 33.5647L687.828 34.69L687.807 32.9001V24.2421L685.127 23.7533C682.398 23.2012 677.851 22.3009 673.164 22.3009C661.056 22.3009 652.971 28.019 652.971 36.3956Z" fill="#140F14"/>
</g>
</g>
<defs>
<linearGradient id="paint0_linear_101_206" x1="71.9932" y1="5.21189" x2="71.9932" y2="138.936" gradientUnits="userSpaceOnUse">
<stop stop-color="#707070"/>
<stop offset="0.600006" stop-color="#D3D3D3"/>
<stop offset="1" stop-color="#AAAAAA"/>
</linearGradient>
<linearGradient id="paint1_linear_101_206" x1="71.7678" y1="-28.5108" x2="71.7678" y2="130.126" gradientUnits="userSpaceOnUse">
<stop stop-color="#858585"/>
<stop offset="0.300003" stop-color="#CBCBCB"/>
<stop offset="0.550003" stop-color="#8D8D8D"/>
<stop offset="0.835159" stop-color="#757575"/>
<stop offset="1" stop-color="#A0A0A0"/>
</linearGradient>
<linearGradient id="paint2_linear_101_206" x1="80.7085" y1="49.8338" x2="80.8047" y2="49.8338" gradientUnits="userSpaceOnUse">
<stop stop-color="#E7E7E7"/>
<stop offset="1" stop-color="#FEFEFE"/>
</linearGradient>
<linearGradient id="paint3_linear_101_206" x1="99.4819" y1="125.602" x2="99.4819" y2="17.1219" gradientUnits="userSpaceOnUse">
<stop stop-color="#B5B5B5"/>
<stop offset="1" stop-color="#A0A0A0"/>
</linearGradient>
<linearGradient id="paint4_linear_101_206" x1="32.1772" y1="125.608" x2="32.1772" y2="17.1006" gradientUnits="userSpaceOnUse">
<stop stop-color="#B5B5B5"/>
<stop offset="1" stop-color="#9F9F9F"/>
</linearGradient>
<linearGradient id="paint5_linear_101_206" x1="53.1424" y1="125.594" x2="53.1424" y2="17.1359" gradientUnits="userSpaceOnUse">
<stop stop-color="#B5B5B5"/>
<stop offset="1" stop-color="#A4A4A4"/>
</linearGradient>
<linearGradient id="paint6_linear_101_206" x1="71.2709" y1="125.604" x2="71.2709" y2="17.1434" gradientUnits="userSpaceOnUse">
<stop stop-color="#BEBEBE"/>
<stop offset="1" stop-color="#9EA0A0"/>
</linearGradient>
<clipPath id="clip0_101_206">
<rect width="697.076" height="144.098" fill="white"/>
</clipPath>
</defs>
</svg>
