<svg width="510" height="120" viewBox="0 0 510 120" fill="none" xmlns="http://www.w3.org/2000/svg">
<path d="M505.01 114.465H5.00055V4.9972H505.01V114.465Z" fill="#BABABA"/>
<path d="M187.569 64.3868H187.672H188.225C190.468 65.9234 191.329 66.8453 192.957 68.4127V68.5151H192.855C192.855 68.5151 192.732 68.4127 192.548 68.2385C192.333 68.0541 191.995 67.8083 191.564 67.4395C190.704 66.7634 189.352 65.78 187.569 64.52V64.4175V64.3868ZM190.612 64.2024H186.125V65.9849C186.555 66.1385 186.924 66.3229 187.293 66.4766C189.352 67.2756 190.335 67.8902 190.366 67.921C190.489 68.0234 195.068 70.4103 198.879 73.883C202.689 77.3864 203.335 77.0791 208.006 82.2728L208.59 82.9489C206.254 79.5377 202.874 75.942 197.465 71.0556C196.881 70.5332 196.266 69.98 195.682 69.3961C193.777 67.6136 191.933 65.6775 190.612 64.2024Z" fill="#F0F0F0"/>
<path d="M202.054 74.6666C198.745 71.532 194.289 67.2295 191.4 63.9104H190.53C192.599 66.2768 195.109 68.889 197.475 71.0096C203.283 76.234 206.766 80.014 209.123 83.6404L207.965 82.3189C203.283 77.1252 202.679 77.4325 198.838 73.9291C194.996 70.3949 190.315 67.9671 190.315 67.9671C190.315 67.9671 188.932 67.0758 185.92 66.031V67.4139C189.956 68.8583 191.728 69.8725 191.728 69.8725C191.728 69.8725 197.639 73.1915 201.972 77.3711C205.681 80.9667 206.521 81.8887 207.371 82.8414C207.371 82.8414 209.163 84.1014 210.055 84.4702C210.055 84.4702 208.539 80.7823 202.054 74.6666Z" fill="#BABABA"/>
<path d="M202.054 74.6666C198.735 71.5012 194.279 67.2295 191.431 63.9104H191.329H190.458V64.0129C192.476 66.3485 195.037 68.9607 197.393 71.112C203.202 76.3364 206.674 80.0857 209.01 83.7121H209.112L207.934 82.3906C203.273 77.1969 202.648 77.5042 198.807 74.0008C194.965 70.4666 190.325 68.008 190.325 68.008C190.325 68.008 188.911 67.1476 185.869 66.0719V66.1744V67.5573C187.897 68.2949 189.341 68.9095 190.294 69.3398C190.755 69.5856 191.134 69.7393 191.339 69.8622C191.585 69.9851 191.687 70.0466 191.687 70.0466C191.687 70.0466 192.046 70.2617 192.671 70.6305C194.535 71.7676 198.663 74.4105 201.88 77.5145C205.629 81.1101 206.459 82.0321 207.32 82.9848C207.32 82.9848 209.102 84.2448 209.993 84.5829H210.096V84.4804C210.096 84.4804 208.59 80.7926 202.105 74.6769C205.322 77.7501 207.32 80.1779 208.487 81.8682C209.102 82.6979 209.502 83.3741 209.727 83.8043C209.84 84.0194 209.942 84.1731 209.993 84.296C209.993 84.419 210.096 84.4497 210.096 84.4497H210.198V84.3472C209.799 84.1628 209.112 83.7633 208.559 83.4253C208.016 83.0565 207.555 82.7492 207.555 82.7492C206.715 81.7965 205.855 80.8745 202.136 77.2789C197.803 73.0993 191.902 69.7803 191.902 69.7803C191.902 69.7803 190.099 68.7354 186.063 67.291V67.3934H186.166V66.0105H186.063C187.579 66.5637 188.686 67.0554 189.423 67.3934C189.782 67.5778 190.038 67.7007 190.222 67.7929C190.397 67.9159 190.489 67.9466 190.489 67.9466C190.489 67.9466 190.776 68.1003 191.257 68.4076C192.773 69.2373 196.082 71.2656 198.971 73.9086C202.812 77.4428 203.427 77.1355 208.098 82.2984L209.266 83.6199H209.368V83.5175C206.992 79.8911 203.529 76.111 197.752 70.8866C195.375 68.7661 192.824 66.1231 190.806 63.7875H190.704V63.89H191.575C194.433 67.1783 198.899 71.4808 202.249 74.6154L202.054 74.6666Z" fill="#BABABA"/>
<path d="M192.927 68.4137C191.267 66.8464 190.437 65.9551 188.163 64.3878H187.61C191.236 66.9078 192.927 68.4137 192.927 68.4137Z" fill="#BABABA"/>
<path d="M192.927 68.4137C191.267 66.8464 190.437 65.9244 188.163 64.3571H187.61V64.4596C189.423 65.7196 190.745 66.703 191.636 67.4098C192.066 67.7479 192.374 68.0245 192.619 68.2089C192.804 68.3625 192.927 68.4547 192.927 68.4547H193.029V68.3523C193.029 68.3523 191.339 66.8157 187.712 64.3264V64.4288H188.266V64.3264C190.509 65.8937 191.37 66.8157 193.029 68.3523L192.927 68.4137Z" fill="#BABABA"/>
<path d="M191.574 64.2065H190.868C192.865 66.4807 195.262 68.9392 197.536 70.9676C203.345 76.2227 206.817 79.972 209.184 83.5984V83.7008H209.081L207.914 82.3487C203.242 77.1857 202.628 77.493 198.786 73.9896C195.897 71.3466 192.578 69.3183 191.072 68.4578C190.581 68.1812 190.304 68.0275 190.304 68.0275C190.304 68.0275 190.202 67.9251 190.028 67.8739C189.843 67.7714 189.597 67.628 189.229 67.4436C188.522 67.1056 187.508 66.6753 186.094 66.1529V67.4129C189.997 68.8266 191.749 69.8407 191.749 69.8407C191.749 69.8407 197.649 73.1598 201.982 77.3393C205.701 80.935 206.561 81.8569 207.391 82.8096C207.494 82.8096 207.883 83.1477 208.405 83.4857C208.897 83.8238 209.512 84.1618 209.911 84.377C209.911 84.377 209.911 84.3769 209.911 84.2745C209.809 84.1721 209.758 83.9979 209.665 83.7828C209.419 83.3526 209.02 82.7072 208.436 81.8467C207.238 80.1872 205.24 77.7286 202.013 74.6861C198.755 71.6129 194.453 67.4641 191.564 64.1758" fill="#B4B4B4"/>
<path d="M186.114 67.4025V67.5255C188.02 68.2323 189.403 68.8162 190.294 69.2465C190.786 69.4616 191.124 69.6153 191.37 69.7382C191.585 69.8611 191.708 69.9226 191.708 69.9226C191.708 69.9226 192.076 70.1377 192.691 70.5065C194.535 71.6436 198.653 74.2865 201.911 77.3904C205.66 81.0168 206.49 81.908 207.35 82.8915C207.35 82.8915 209.133 84.1515 210.024 84.5203H210.126V84.4178C210.126 84.4178 208.621 80.73 202.136 74.6143V74.7168C205.363 77.7592 207.361 80.2178 208.528 81.8773C209.112 82.7378 209.512 83.3832 209.758 83.8135C209.881 84.0286 209.973 84.213 210.003 84.3051C209.573 84.1208 208.989 83.7827 208.467 83.4447C207.975 83.1066 207.545 82.7993 207.483 82.7685C206.623 81.8159 205.793 80.8939 202.075 77.2983C197.711 73.1187 191.841 69.7996 191.841 69.7996C191.841 69.7996 190.089 68.7855 186.186 67.3718M190.919 64.1757H190.796C192.794 66.4499 195.252 68.9699 197.526 71.0289C202.935 75.9153 206.346 79.5109 208.682 82.9222L208.067 82.2461C203.396 77.0524 202.781 77.3597 198.94 73.8563C195.16 70.3836 190.55 67.9557 190.427 67.8943C190.427 67.8943 189.413 67.2796 187.354 66.4499C186.985 66.2962 186.616 66.1425 186.186 65.9889V66.1118C187.569 66.6343 188.614 67.0645 189.29 67.4025C189.659 67.5869 189.935 67.7406 190.12 67.8328C190.304 67.9352 190.366 67.9865 190.366 67.9865C190.366 67.9865 190.673 68.1401 191.165 68.4167C192.64 69.2772 195.99 71.3055 198.878 73.9485C202.72 77.4519 203.304 77.1446 207.975 82.3076L209.143 83.6598H209.245V83.5574C206.879 79.931 203.406 76.1509 197.598 70.9265C195.355 68.8982 192.927 66.4396 190.929 64.1654M191.79 64.1654H191.667C194.525 67.4538 198.858 71.6026 202.116 74.6758V74.5733C198.889 71.5309 194.617 67.4128 191.728 64.1552" fill="#B4B4B4"/>
<path d="M188.153 64.4401H187.784C189.577 65.6694 190.858 66.6836 191.728 67.3289C190.704 66.3763 189.823 65.5772 188.153 64.4401Z" fill="#B4B4B4"/>
<path d="M187.794 64.438H188.132C189.792 65.6058 190.683 66.3741 191.728 67.3575C190.868 66.6814 189.546 65.698 187.794 64.438ZM188.163 64.3151H187.61V64.4175C189.423 65.6775 190.745 66.6917 191.605 67.3678C192.066 67.7058 192.374 67.9824 192.589 68.1668C192.804 68.3205 192.896 68.4127 192.927 68.4434H193.029V68.3409C191.37 66.7736 190.509 65.8824 188.266 64.3151H188.163Z" fill="#B4B4B4"/>
<path d="M36.1321 36.7812H65.5426V46.7077H61.947C60.226 46.7077 59.7035 47.3838 59.7035 49.074V71.4777C59.7035 72.5533 60.5948 73.5367 62.0699 73.5367H70.5519C71.6583 73.5367 73.0412 72.7684 73.0412 71.2011V63.1493H84.7809V83.4939H36.1321V73.5674H39.574C41.1721 73.5674 42.0019 73.045 42.0019 71.4162V49.074C42.0019 47.6296 41.7253 46.7077 39.7892 46.7077H36.1321V36.7812Z" fill="white"/>
<path d="M89.9029 36.7812H138.265V51.7785H126.167V49.2892C126.167 47.7526 125.398 46.7077 123.052 46.7077H112.522V55.159H123.892V64.2249H112.522V73.5367H123.544C124.999 73.5367 126.167 72.6455 126.167 70.986V68.4352H138.265V83.4939H89.9029V73.5674H92.5151C93.898 73.5674 94.8507 73.0143 94.8507 71.6006V49.1662C94.8507 47.6604 94.6049 46.7077 92.6688 46.7077H89.9029V36.7812Z" fill="white"/>
<path d="M162.359 36.7812H211.878V51.7785H199.759V49.2277C199.759 47.8755 198.93 46.7077 197.086 46.7077H186.125V55.159H196.256V64.2249H186.125V70.9552C186.125 72.8299 186.913 73.5674 189.341 73.5674H193.183V83.4939H162.359V73.5674H166.446C167.624 73.5674 168.444 72.7991 168.444 71.6006V49.1662C168.444 47.7526 168.198 46.7077 166.272 46.7077H162.359V36.7812Z" fill="white"/>
<path d="M239.926 49.0639C239.926 47.3122 240.479 46.7282 242.17 46.7282H245.796V36.7711H216.57V46.7282H220.289C222.255 46.7282 222.532 47.6195 222.532 49.0639V71.4675C222.532 73.2192 221.456 73.588 220.227 73.588H216.57V83.4837H245.796V73.588H242.231C240.817 73.588 239.926 73.0348 239.926 71.4061V49.0639Z" fill="white"/>
<path d="M288.862 36.7812H299.219V53.1921H288.8C288.8 53.1921 285.819 46.0316 277.399 46.0316C271.099 46.0316 266.182 50.5799 266.182 59.0005C266.182 73.2601 274.08 74.4587 277.491 74.4587C284.498 74.4587 286.127 69.5108 286.127 67.5132H279.612V58.9083H302.015C302.015 58.9083 301.913 62.4117 301.913 64.901C301.913 66.0996 300.745 84.3236 275.637 84.3236C257.505 84.3236 248.009 73.967 248.009 59.2156C248.009 49.4121 255.692 36.0744 274.1 36.0744C284.395 36.0744 288.852 40.2847 288.852 40.2847V36.7812H288.862Z" fill="white"/>
<path d="M356.82 73.5757C354.823 73.5757 354.208 71.7932 353.01 68.9044C352.026 66.5381 340.655 36.7895 340.655 36.7895H322.646C322.646 36.7895 310.415 69.8571 309.862 71.2708C309.155 72.9303 308.141 73.5757 306.328 73.5757H303.716V83.4714H325.75V74.0674H322.708C321.386 74.0674 321.079 73.0533 321.509 71.6396C322.032 70.0108 322.923 67.46 322.923 67.46H336.292C336.292 67.46 337.029 69.7649 337.736 71.8854C338.258 73.4835 336.568 74.0674 335.554 74.0674H332.942V83.4714H359.463V73.5757H356.82ZM325.074 61.0371L329.684 47.2998H329.838L334.232 61.0371H325.074Z" fill="white"/>
<path d="M419.022 73.5757C417.209 73.5757 416.932 72.7152 416.01 71.5167C415.119 70.3181 409.526 61.5902 409.526 61.5902C409.526 61.5902 417.701 59.316 417.701 50.5882C417.701 41.891 410.417 38.7871 407.313 37.9881C404.209 37.189 397.51 36.7895 395.696 36.7895H386.692H363.766V46.7159H366.901C368.898 46.7159 369.144 47.6994 369.144 49.0516V71.2401C369.144 72.2235 368.99 73.5757 366.808 73.5757H363.766V83.4714H391.886V73.5757H389.028C387.061 73.5757 386.815 72.5001 386.815 71.3323V63.7722H393.084L404.609 83.4714H422.249V73.5757H419.022ZM393.207 55.6897H386.815V46.0706H393.76C395.789 46.0706 399.384 46.8081 399.384 50.9877C399.384 54.1224 397.079 55.6897 393.207 55.6897Z" fill="white"/>
<path d="M448.248 36.0713C428.641 36.0713 421.542 49.1939 421.542 59.7042C421.542 73.6566 431.376 84.3206 448.064 84.3206C462.938 84.3206 474.647 76.1766 474.647 60.2881C474.647 45.1987 463.461 36.0713 448.248 36.0713ZM448.556 74.4556C444.253 74.4556 439.735 71.9048 439.735 58.9052C439.735 50.8841 442.809 45.9056 448.064 45.9056C453.042 45.9056 456.669 49.1939 456.669 59.7964C456.669 71.2595 452.889 74.4556 448.556 74.4556Z" fill="white"/>
<path d="M166.354 36.5692V36.7844H166.815C166.63 36.6819 166.477 36.6307 166.323 36.5692M157.38 33.2502L157.902 39.0278C158.425 39.6117 158.947 40.1649 159.531 40.6873L159.009 34.4795H159.111L159.664 40.8102C160.187 41.2712 160.709 41.7322 161.263 42.1625L160.709 35.4936H160.832L161.385 42.2854C161.693 42.5312 162.031 42.7464 162.338 42.9922V36.8151H162.441V36.4463H162.543V36.8151H163.834C161.529 35.8624 159.347 34.6331 157.38 33.2809M155.659 32.0516L156.089 36.938C156.612 37.6141 157.165 38.2902 157.78 38.9356L157.288 33.2502H157.39C156.806 32.8507 156.253 32.4512 155.7 32.0516M153.979 30.6994L154.286 34.418C154.809 35.1863 155.362 35.9853 156.007 36.7844L155.577 31.9594C155.024 31.5292 154.501 31.1297 153.979 30.6994ZM152.289 29.255L152.442 31.3448C152.873 32.1438 153.395 33.0351 153.979 33.957C154.081 34.0595 154.102 34.1414 154.163 34.2029L153.856 30.6072C153.303 30.1463 152.781 29.6853 152.289 29.255ZM150.691 27.7491C150.814 28.0872 151.029 28.5789 151.305 29.1628C151.582 29.716 151.92 30.3921 152.32 31.099L152.197 29.1628C151.613 28.6711 151.121 28.1794 150.691 27.7491ZM148.294 25.2906C148.396 27.8414 148.816 30.5765 149.246 32.5126C149.4 33.2809 149.615 34.1107 149.83 34.9712C149.83 35.0941 149.933 35.1556 149.933 35.1556C149.41 34.9097 149.041 34.6331 148.765 34.3873C148.519 34.2336 148.273 33.9878 147.966 33.7112C148.068 33.9263 148.089 34.1107 148.119 34.2951C148.242 34.5717 148.365 34.9097 148.488 35.2478C148.949 36.4156 149.625 37.9522 150.547 39.6117C152.33 42.9308 154.942 46.6801 158.353 48.3703V48.4728L158.251 48.5752C158.251 48.5752 158.005 48.5752 157.605 48.5752C157.759 48.6777 157.851 48.6981 157.851 48.6981C156.253 48.5137 154.778 48.022 154.071 47.7455C154.174 47.8479 154.225 47.8991 154.317 47.9913C154.686 48.3601 155.301 48.9133 156.253 49.6508C158.22 51.126 161.57 53.3387 167.225 56.2889V56.3914C167.225 56.3914 167.04 56.4938 166.61 56.5143H166.507C166.354 56.5143 166.139 56.5143 165.893 56.5143C165.278 56.5143 164.418 56.4119 163.281 56.1762C163.383 56.1762 163.404 56.2787 163.465 56.2787C163.742 56.4631 164.141 56.7089 164.664 57.0163C165.616 57.6002 166.907 58.3685 168.382 59.1675V49.3025C168.382 47.8889 168.136 46.844 166.2 46.844H162.297V43.8015C156.489 39.8371 151.91 31.7546 150.373 27.6365C149.021 26.315 148.222 25.393 148.222 25.393" fill="#F0F0F0"/>
<path d="M176.157 44.454L176.895 53.0282C177.54 53.7043 178.093 54.3189 178.554 54.9336L177.878 47.0969H177.776C177.499 46.5745 177.13 45.9599 176.669 45.2838C176.516 45.0072 176.301 44.7613 176.116 44.4847M162.318 43.6857V46.7589H166.221C168.157 46.7589 168.403 47.8038 168.403 49.1867V59.0824C168.525 59.1849 168.648 59.2053 168.771 59.2668C171.906 60.9571 175.809 62.7703 178.851 63.2927V49.0638C178.851 49.0638 178.575 48.3569 177.991 47.312L178.667 55.118V55.2204V55.9273H178.565C178.073 55.1282 174.815 50.5492 163.721 44.5872C163.229 44.3106 162.738 44.0032 162.246 43.6652M162.369 36.7812H162.246V42.9583C162.461 43.112 162.676 43.2657 162.922 43.4193L162.369 36.7812ZM166.733 36.7812H166.272L166.374 37.3959V37.4983H166.272C166.272 37.4983 166.272 37.4983 166.169 37.4983C166.169 37.6212 166.169 37.6827 166.067 37.6827C165.268 37.4676 164.5 37.191 163.731 36.8529H162.41L162.963 43.5525C163.485 43.8906 164.008 44.1979 164.561 44.5052L163.977 37.4061H164.08L164.694 44.5974C164.694 44.5974 164.797 44.5974 164.817 44.6998C165.309 44.9457 165.77 45.2223 166.262 45.4681L165.616 38.0924H165.719H165.821L166.466 45.5296C166.989 45.8369 167.542 46.1442 168.064 46.4823L167.296 37.57H167.419L168.187 46.5745C168.71 46.9125 169.263 47.2506 169.785 47.5887L168.986 38.4612H169.109L169.878 47.6501C170.431 48.0189 170.953 48.3877 171.476 48.7565L170.707 39.5369H170.81L171.609 48.8486C172.162 49.2482 172.684 49.6477 173.207 50.0472L172.408 40.8276H172.531L173.33 50.1701C173.883 50.6311 174.467 51.0921 174.989 51.5531L174.19 42.5793H174.293L175.092 51.676C175.706 52.1984 176.229 52.6902 176.721 53.1819L175.983 44.5769C174.047 41.9954 171.035 38.953 166.794 37.0476" fill="white"/>
<path d="M177.796 46.1495C176.659 44.2134 174.324 40.6792 171.804 38.9274C168.146 36.346 165.196 35.1781 165.196 35.1781L165.995 36.7455C165.995 36.7455 159.849 34.4098 157.237 32.5352C153.303 29.6771 147.74 24.2068 147.74 24.2068C147.433 28.202 149.154 34.1947 149.154 34.1947C148.386 33.8259 147.095 32.1357 147.095 32.1357C149.799 43.5065 156.591 47.8705 156.591 47.8705C156.13 47.8705 152.596 46.6412 152.596 46.6412C156.069 51.5276 165.78 55.83 165.78 55.83C164.735 55.83 161.447 55.1232 161.447 55.1232C170.206 62.0379 179.149 64.1277 179.149 64.1277V63.3594C172.91 62.4374 163.014 55.8915 163.014 55.8915C165.995 56.6598 167.225 56.1681 167.225 56.1681C155.854 50.2983 153.764 47.348 153.764 47.348C155.792 48.3929 158.251 48.3929 158.251 48.3929C151.428 44.9816 147.679 33.3957 147.679 33.3957C148.908 34.6557 149.738 34.9323 149.738 34.9323C147.986 28.2634 147.925 24.6063 147.925 24.6063C148.109 25.0673 151.52 28.9396 157.821 33.242C162.062 36.1001 166.395 37.3908 166.395 37.3908L166.21 36.2538C166.21 36.2538 167.163 36.2538 171.588 39.5114C174.569 41.6933 176.813 45.1353 177.827 47.0407L177.725 46.1495H177.796Z" fill="#BABABA"/>
<path d="M177.796 46.1494H177.899C176.762 44.2133 174.395 40.6791 171.906 38.8967C168.218 36.3459 165.268 35.1474 165.268 35.1474H165.165V35.2498L165.964 36.8171H166.067V36.7147C166.067 36.7147 165.698 36.5918 165.084 36.3459C163.24 35.6084 159.306 33.9488 157.37 32.5352C155.372 31.0908 153.006 29.001 151.131 27.28C150.179 26.4195 149.379 25.6512 148.765 25.098C148.212 24.5448 147.843 24.2068 147.843 24.2068H147.74C147.74 24.5448 147.74 24.9136 147.74 25.2824C147.74 29.1854 149.185 34.1947 149.185 34.1947H149.287V34.0922C148.918 33.9386 148.396 33.4162 147.966 32.9552C147.781 32.7093 147.597 32.4942 147.443 32.3098C147.32 32.1561 147.259 32.0639 147.259 32.0639H147.157V32.1664C149.892 43.5679 156.683 47.9626 156.683 47.9626V47.8602C156.581 47.8602 156.284 47.7577 155.884 47.6451C155.27 47.4607 154.471 47.2148 153.825 46.9997C153.18 46.7846 152.688 46.6002 152.688 46.6002H152.586V46.7026C156.089 51.589 165.831 55.9222 165.831 55.9222V55.8198C165.34 55.8198 164.233 55.6354 163.281 55.451C162.328 55.2973 161.498 55.1129 161.498 55.1129H161.396V55.2154C170.185 62.1301 179.159 64.2198 179.159 64.2198H179.261V63.4515L179.159 63.3491C176.055 62.8881 172.029 61.0442 168.802 59.2925C167.173 58.432 165.729 57.5715 164.715 56.9569C164.192 56.6495 163.793 56.3729 163.516 56.1886C163.209 56.0042 163.055 55.912 163.055 55.912V56.0144C164.346 56.3524 165.299 56.4447 165.975 56.4447C166.866 56.4447 167.266 56.291 167.266 56.291V56.1886V56.0861C161.611 53.1666 158.23 50.9846 156.294 49.5095C155.341 48.7412 154.727 48.188 154.358 47.8499C154.174 47.6655 154.051 47.5119 153.959 47.4197C153.856 47.3173 153.856 47.3172 153.856 47.3172C155.915 48.3929 158.374 48.3929 158.374 48.3929L158.476 48.2904V48.188C155.065 46.4977 152.422 42.7484 150.639 39.4294C149.748 37.7698 149.072 36.2332 148.611 35.0962C148.396 34.5123 148.212 34.0513 148.119 33.7439C147.997 33.4059 147.935 33.2215 147.935 33.2215H147.833C149.062 34.5122 149.892 34.7888 149.922 34.7888V34.6864C149.062 31.3366 148.601 28.7551 148.355 27.0034C148.232 26.1429 148.171 25.4668 148.14 25.0365C148.14 24.5756 148.037 24.3604 148.037 24.3604H147.935C148.037 24.5141 148.242 24.8214 148.673 25.3131C150.025 26.819 153.129 29.8 157.861 33.0576C162.103 35.9157 166.436 37.2064 166.466 37.2064V37.104L166.282 35.9362H166.18C166.282 35.9362 167.347 36.1513 171.496 39.1938C174.447 41.3757 176.69 44.8177 177.704 46.7231H177.807V46.6207L177.704 45.7294H177.602H177.499L177.602 46.6207H177.704H177.807C176.762 44.7153 174.518 41.2733 171.537 39.0606C167.112 35.8337 166.159 35.803 166.128 35.803V35.9054L166.313 37.0425H166.415V36.9401C166.415 36.9401 166.139 36.8376 165.647 36.725C164.233 36.2025 161.006 34.9425 157.841 32.822C154.706 30.6708 152.279 28.6117 150.619 27.0444C149.789 26.2761 149.144 25.6 148.683 25.1083C148.253 24.6166 148.007 24.2785 147.945 24.1863H147.843V24.2887C147.843 24.2887 147.945 27.9458 149.656 34.6454H149.758C149.574 34.543 148.806 34.2459 147.73 33.1088H147.628V33.2113C147.628 33.2113 151.377 44.8279 158.23 48.2699V48.1675V48.0651C158.23 48.0651 158.077 48.0651 157.8 48.0651C157.032 48.0651 155.28 47.8192 153.774 47.0509H153.672V47.1533C153.672 47.1533 155.823 50.1344 167.163 56.0042V55.9017V55.7993C167.163 55.7993 167.163 55.7993 167.061 55.7993C166.907 55.9017 166.507 55.9529 165.862 55.9529C165.217 55.9529 164.264 55.8505 162.973 55.5227H162.871V55.6251C162.871 55.6251 172.767 62.171 179.036 63.0623H178.933V63.8613H179.036V63.7589C179.036 63.7589 178.882 63.7589 178.636 63.6564C176.792 63.1647 168.986 60.8291 161.334 54.7749V54.8773C161.334 54.8773 164.623 55.5842 165.698 55.5842H165.801V55.4817C165.801 55.4817 165.647 55.3793 165.37 55.2666C163.465 54.3754 155.628 50.5339 152.617 46.2928V46.3953C152.617 46.3953 153.508 46.7026 154.461 47.0099C154.921 47.1636 155.413 47.3172 155.813 47.4402C156.212 47.5631 156.52 47.6246 156.642 47.6246H156.745V47.5221C156.745 47.5221 156.642 47.4197 156.438 47.307C155.116 46.3236 149.646 41.7445 147.279 31.7873H147.177C147.177 31.7873 147.484 32.2176 147.915 32.6786C148.345 33.1395 148.867 33.662 149.236 33.8464H149.339V33.7439C149.339 33.7439 149.236 33.4366 149.123 32.9142C148.693 31.3161 147.863 27.7512 147.863 24.8624C147.863 24.4936 147.863 24.1248 147.966 23.8175H147.863V23.92C147.863 23.92 153.426 29.3595 157.36 32.2176C160.002 34.123 166.118 36.4586 166.118 36.4586H166.221V36.3562L165.452 34.7888H165.35V34.8913C165.35 34.8913 165.565 34.9937 165.872 35.1064C166.886 35.5674 169.222 36.7045 171.957 38.6098C174.447 40.3616 176.813 43.8957 177.919 45.8319H178.022L177.796 46.1494Z" fill="#BABABA"/>
<path d="M178.718 55.8771C178.227 55.0781 174.969 50.499 163.875 44.5063C157.206 40.9414 151.889 31.4452 150.383 27.1734C150.383 27.1734 154.993 39.4662 164.95 44.5985C171.128 47.7946 176.536 52.1893 178.688 55.201V55.8771H178.718Z" fill="#BABABA"/>
<path d="M178.718 55.8771H178.821C178.298 55.0781 175.041 50.4683 163.916 44.5063C157.308 40.9413 151.961 31.4451 150.455 27.1734H150.353C150.353 27.1734 154.993 39.4969 164.95 44.6292C171.128 47.856 176.536 52.22 178.657 55.2317V55.9078H178.759H178.862L178.759 55.2317C176.608 52.1893 171.199 47.8253 165.022 44.5985C160.044 42.0477 156.417 37.6837 154.02 33.9959C152.821 32.1213 151.93 30.431 151.346 29.2017C151.039 28.5871 150.824 28.0954 150.701 27.7266C150.547 27.3885 150.455 27.2041 150.455 27.2041H150.353V27.3066C151.859 31.6091 157.175 41.1053 163.875 44.7009C174.969 50.6629 178.227 55.242 178.688 56.041H178.79V55.9386H178.688L178.718 55.8771Z" fill="#BABABA"/>
<path d="M152.156 28.6322L152.309 31.4595H152.432L152.279 28.6322H152.156Z" fill="#BABABA"/>
<path d="M153.815 30.2108L154.215 34.5439H154.317L153.979 30.2108H153.825H153.815Z" fill="#BABABA"/>
<path d="M155.577 31.8221L156.007 37.1694H156.13L155.71 31.8221H155.577Z" fill="#BABABA"/>
<path d="M157.329 33.2307L157.851 39.3771H157.974L157.452 33.2307H157.329Z" fill="#BABABA"/>
<path d="M162.441 36.4319L163.055 43.7154H163.158L162.574 36.4012H162.451L162.441 36.4319Z" fill="#BABABA"/>
<path d="M159.04 34.4712L159.593 40.9865H159.716L159.163 34.4712H159.04Z" fill="#BABABA"/>
<path d="M160.73 35.467L161.375 42.7812H161.478L160.894 35.467H160.771H160.73Z" fill="#BABABA"/>
<path d="M164.131 37.3221L164.746 44.6364H164.848L164.264 37.3221H164.141H164.131Z" fill="#BABABA"/>
<path d="M165.79 37.9573L166.456 45.7017H166.559L165.924 37.9573H165.801H165.79Z" fill="#BABABA"/>
<path d="M167.358 37.4062L168.157 46.6565H168.28L167.481 37.4062H167.358Z" fill="#BABABA"/>
<path d="M169.058 38.2861L169.878 47.936H170.011L169.181 38.2554H169.058V38.2861Z" fill="#BABABA"/>
<path d="M170.759 39.3351L171.588 49.1694H171.711L170.892 39.3659H170.759V39.3351Z" fill="#BABABA"/>
<path d="M172.48 40.5859L173.279 50.2665H173.402L172.603 40.5859H172.48Z" fill="#BABABA"/>
<path d="M174.252 42.2926L175.082 51.8605H175.205L174.375 42.3233H174.252V42.2926Z" fill="#BABABA"/>
<path d="M176.014 44.1467L176.813 53.4073H176.936L176.137 44.1467H176.014Z" fill="#BABABA"/>
<path d="M177.848 46.9976L178.575 55.6026H178.708L177.97 46.9976H177.848Z" fill="#BABABA"/>
<path d="M147.792 24.3399C147.792 24.6473 147.792 24.9546 147.792 25.2619C147.792 28.1814 148.621 31.7464 149.021 33.3137C149.175 33.8669 149.236 34.1742 149.236 34.1742V34.2766H149.134C148.734 34.0922 148.212 33.5698 147.781 33.1088C147.536 32.8322 147.351 32.5556 147.198 32.402C149.595 42.1747 155.003 46.6923 156.325 47.6758C156.509 47.7987 156.602 47.8601 156.602 47.8601V47.9626V48.065C156.448 48.065 156.141 47.9626 155.741 47.8499C155.341 47.7475 154.85 47.6041 154.389 47.4197C153.682 47.2045 153.037 46.9894 152.729 46.8665C155.802 51.0768 163.485 54.8261 165.391 55.7173C165.667 55.8402 165.821 55.9017 165.821 55.9017V56.0041L165.719 56.1066C164.827 56.1066 162.338 55.6149 161.57 55.4612C169.191 61.3618 176.874 63.6974 178.688 64.1891C178.841 64.1891 178.964 64.2915 179.026 64.2915V63.6462C172.756 62.7242 162.922 56.209 162.922 56.209V56.1066H163.025C164.315 56.4446 165.268 56.5368 165.944 56.5368C166.528 56.5368 166.866 56.4344 167.05 56.4139C155.802 50.6055 153.713 47.6553 153.713 47.6553V47.5528H153.815C155.321 48.3211 157.073 48.5363 157.872 48.567C157.974 48.567 157.995 48.567 158.025 48.567C151.326 44.9713 147.669 33.6313 147.669 33.6313V33.5288H147.771C148.724 34.543 149.461 34.9117 149.707 35.0347C147.986 28.3966 147.894 24.7702 147.894 24.7702H147.997H148.099C148.099 24.8726 148.376 25.2004 148.837 25.6922C149.205 26.1224 149.759 26.6756 150.435 27.3209H150.537C150.537 27.3209 150.537 27.4234 150.64 27.4746C150.742 27.4746 150.742 27.577 150.793 27.6282C151.254 28.0278 151.746 28.4888 152.299 28.9805V28.8268H152.401V29.0727C152.893 29.5029 153.416 29.9332 153.969 30.3941H154.071V30.4966C155.239 31.4493 156.561 32.4327 158.036 33.4161C161.201 35.5674 164.428 36.8274 165.842 37.3191C166.149 37.442 166.364 37.5035 166.487 37.5342L166.333 36.4586H166.436C166.436 36.4586 167.388 36.561 171.814 39.7469C173.627 41.0684 175.133 42.8201 176.301 44.4182V44.5206C177.008 45.4733 177.561 46.3953 177.96 47.1021V46.4875C176.823 44.5513 174.488 41.0479 171.998 39.2962C169.263 37.3908 166.897 36.223 165.913 35.7927C165.76 35.6903 165.606 35.6698 165.514 35.6083L166.251 37.0527V37.1552H166.149C166.149 37.1552 160.033 34.8503 157.421 32.9449C153.764 30.3019 148.693 25.4156 147.986 24.7087" fill="#B4B4B4"/>
<path d="M147.72 24.1709V24.2734C147.72 24.5807 147.72 24.9495 147.72 25.3183C147.72 28.8524 148.919 33.3393 149.134 34.1384C148.765 33.9232 148.335 33.4622 147.935 33.032C147.72 32.8169 147.536 32.571 147.413 32.4174C147.259 32.233 147.198 32.1408 147.198 32.1408H147.095V32.2432C149.523 42.5077 155.27 47.0868 156.407 47.9165C156.253 47.8141 156.069 47.8141 155.823 47.7629C155.239 47.5785 154.44 47.3326 153.795 47.0868C153.149 46.8716 152.658 46.718 152.658 46.718H152.555V46.8204C155.721 51.2458 163.987 55.2103 165.555 55.9171C164.971 55.9171 164.08 55.7327 163.25 55.6098C162.297 55.4254 161.498 55.241 161.498 55.241H161.396V55.3434C170.185 62.2888 179.128 64.3479 179.128 64.3479H179.23V64.2455V63.4772V63.3747C179.128 63.3747 179.046 63.3747 178.954 63.3747C175.881 62.8523 172.008 61.0391 168.843 59.3488C168.72 59.2464 168.597 59.2259 168.474 59.1644C166.999 58.3654 165.708 57.5971 164.756 57.0132C164.264 56.7059 163.834 56.4293 163.557 56.2756C163.455 56.1732 163.434 56.1732 163.404 56.1527C164.541 56.4293 165.401 56.4908 166.016 56.4908C166.907 56.4908 167.276 56.3371 167.276 56.3371H167.378V56.2347C161.693 53.2844 158.343 51.1024 156.407 49.6273C155.423 48.8897 154.809 48.3365 154.44 47.9678C154.286 47.8141 154.194 47.6912 154.102 47.599C156.1 48.5516 158.374 48.5517 158.374 48.5517H158.476V48.4492C155.096 46.7282 152.453 43.0096 150.67 39.6906C149.779 38.0311 149.072 36.4637 148.642 35.3267C148.488 34.9579 148.365 34.6198 148.242 34.3739C148.242 34.2203 148.14 34.0666 148.119 33.9744C148.119 33.8515 148.017 33.7593 148.017 33.6979C149.123 34.835 149.922 35.0808 149.922 35.0808H150.025V34.9784C149.81 34.1179 149.625 33.3188 149.441 32.5505C148.949 30.3685 148.642 28.6168 148.488 27.3261C148.335 26.4349 148.273 25.7895 148.242 25.3285C148.242 25.1441 148.242 24.9904 148.242 24.8675C148.365 25.0212 148.58 25.2978 148.888 25.6358C149.287 26.0968 149.871 26.6807 150.64 27.4183C150.64 27.3159 150.537 27.2954 150.537 27.2339C149.861 26.5885 149.339 26.0353 148.939 25.6051C148.478 25.1134 148.232 24.7753 148.201 24.6524H148.099L147.997 24.7548C147.997 24.7548 148.099 28.3812 149.81 35.0193C149.564 34.8964 148.826 34.5276 147.874 33.5135H147.771V33.6159C147.771 33.6159 151.428 44.956 158.159 48.5209C158.056 48.5209 158.036 48.5209 157.974 48.5209C157.206 48.4185 155.423 48.2751 153.918 47.5068H153.815V47.6092C153.815 47.6092 155.905 50.5902 167.153 56.3985C166.968 56.501 166.63 56.5215 166.046 56.5215C165.37 56.5215 164.418 56.419 163.127 56.0912H163.025V56.1937C163.025 56.1937 172.859 62.6781 179.128 63.6001V64.2762C179.026 64.2762 178.944 64.2762 178.79 64.1738C176.977 63.6821 169.294 61.3771 161.672 55.4459C162.441 55.5995 164.93 56.122 165.821 56.122L165.924 56.0195V55.9171C165.924 55.9171 165.77 55.8146 165.493 55.7327C163.588 54.8415 155.936 51.0614 152.832 46.8819C153.139 46.9843 153.784 47.2199 154.491 47.435C154.952 47.5887 155.444 47.7424 155.843 47.8653C156.243 47.9882 156.55 48.0497 156.704 48.0497V47.9472C156.704 47.9472 156.581 47.8448 156.397 47.7321C155.075 46.7794 149.666 42.2618 147.269 32.4891C147.392 32.6427 147.638 32.9193 147.853 33.1652C148.283 33.6569 148.806 34.1793 149.205 34.3637H149.308V34.2613C149.308 34.2613 149.205 33.9232 149.062 33.4008C148.662 31.8335 147.833 28.2685 147.833 25.349C147.833 25.0417 147.833 24.7344 147.833 24.427C148.539 25.1031 153.61 30.0203 157.267 32.6632C159.88 34.5686 166.026 36.8735 166.026 36.8735H166.128V36.7711L165.391 35.3574C165.493 35.3574 165.606 35.4598 165.79 35.511C166.774 35.972 169.14 37.1091 171.875 39.0452C174.365 40.7662 176.7 44.3004 177.837 46.2365V46.8512C177.438 46.1136 176.885 45.2223 176.209 44.2389V44.4541C176.915 45.4682 177.469 46.4209 177.868 47.1277H177.97V47.0253L177.868 46.1955C176.731 44.2594 174.395 40.7252 171.875 38.9735C170.646 38.113 169.54 37.4062 168.556 36.853C166.589 35.7467 165.237 35.2242 165.237 35.2242H165.135V35.3267L165.872 36.7711C165.688 36.6686 165.381 36.5867 164.981 36.433C163.168 35.6954 159.203 34.0359 157.267 32.6222C155.3 31.2086 152.934 29.1188 151.029 27.3978C150.107 26.5373 149.277 25.769 148.693 25.2158C148.109 24.6319 147.771 24.2939 147.771 24.2939H147.669L147.72 24.1709Z" fill="#A0A0A0"/>
<path d="M150.486 27.2963C150.486 27.3988 150.588 27.45 150.588 27.5422C151.08 27.9724 151.572 28.4334 152.156 28.9559V28.8022C151.603 28.3105 151.111 27.8803 150.65 27.45C150.547 27.3476 150.547 27.3476 150.496 27.2963" fill="#A0A0A0"/>
<path d="M152.268 28.8975V29.0512C152.76 29.4814 153.282 29.8809 153.836 30.3419V30.219C153.282 29.758 152.76 29.297 152.268 28.8975Z" fill="#A0A0A0"/>
<path d="M153.948 30.2856V30.4392C155.085 31.3304 156.407 32.3138 157.851 33.2973C162.062 36.1553 166.395 37.4461 166.395 37.4461H166.497V37.3437L166.395 36.729L166.292 36.2681C166.6 36.3705 167.829 36.7905 171.578 39.4949C173.361 40.8164 174.867 42.5681 176.034 44.1662V44.0637H176.137C174.969 42.4349 173.463 40.6832 171.681 39.3925C167.224 36.1349 166.303 36.1041 166.272 36.1041V36.2066L166.425 37.2822C166.303 37.2822 166.087 37.1593 165.78 37.0671C164.336 36.5446 161.109 35.3154 157.974 33.1641C156.499 32.15 155.147 31.1665 154.01 30.2446" fill="#A0A0A0"/>
<path d="M152.852 32.2985C153.252 33.0053 153.713 33.7736 154.174 34.5112V34.4087C153.682 33.6712 153.252 32.9643 152.852 32.2882" fill="#B4B4B4"/>
<path d="M154.266 34.545C154.85 35.4055 155.434 36.2967 156.079 37.1572V36.9728C155.434 36.1431 154.85 35.3441 154.327 34.545" fill="#B4B4B4"/>
<path d="M156.141 37.1101H156.038C158.23 40.0604 160.925 42.8263 163.885 44.4243C174.365 50.0483 177.858 54.443 178.657 55.6108V55.5083V55.0473C178.227 54.4634 177.684 53.8181 177.008 53.142V53.3571H176.905H176.803V53.019C176.311 52.5273 175.789 52.0049 175.215 51.4824V51.759H175.112V51.3902C174.58 50.9292 174.037 50.4683 173.443 50.0073V50.1917H173.34V49.9151C172.828 49.5156 172.295 49.1161 171.742 48.7166V49.0546H171.64H171.537V48.5936C171.015 48.2248 170.492 47.8868 169.939 47.518V47.8253H169.837V47.4258C169.314 47.0877 168.792 46.7497 168.239 46.4117V46.5653H168.136V46.3195C167.614 45.9814 167.061 45.6741 166.528 45.3668V45.5512H166.426H166.323V45.3053C165.821 45.0287 165.329 44.7521 164.817 44.5063H164.715H164.612V44.4038C164.059 44.0965 163.526 43.7892 163.014 43.4819V43.5843H162.912V43.3999C162.359 43.0619 161.816 42.6624 161.283 42.2628V42.6316H161.181L161.078 42.1706C160.525 41.7404 160.003 41.2794 159.48 40.8184H159.378V40.716C158.804 40.1936 158.241 39.6404 157.728 39.0565V39.2101V38.9028C157.103 38.2574 156.561 37.6121 156.038 36.936" fill="#B4B4B4"/>
<path d="M150.363 27.1059C151.869 31.4083 157.186 40.9045 163.854 44.5002C174.949 50.4929 178.237 55.0412 178.698 55.8403H178.8L178.903 55.7378L178.8 55.0617C178.8 55.0617 178.8 54.9593 178.698 54.9593L178.8 55.451H178.698V55.5534C177.899 54.3856 174.395 49.9909 163.916 44.367C160.966 42.7689 158.261 40.0031 156.048 37.0528C155.403 36.1923 154.788 35.3318 154.235 34.4405C153.774 33.703 153.313 32.9347 152.914 32.2279C153.313 32.904 153.744 33.6108 154.235 34.3483V34.1025C154.133 34.0001 154.133 33.9489 154.082 33.8567C153.467 32.9347 152.975 32.0434 152.514 31.2444V31.3673H152.412V30.9986C152.012 30.2917 151.674 29.6156 151.428 29.0624C151.121 28.4478 150.906 27.9561 150.752 27.6181C150.752 27.5156 150.752 27.5156 150.65 27.4644C150.65 27.3619 150.547 27.28 150.547 27.2185L150.445 27.0649H150.343L150.363 27.1059Z" fill="#A0A0A0"/>
<path d="M154.286 34.3863V34.54C154.809 35.339 155.393 36.138 156.038 36.9678V36.7527C155.423 35.9536 154.87 35.1546 154.348 34.3863" fill="#A0A0A0"/>
<path d="M156.12 36.9083V37.0927C156.642 37.7791 157.196 38.4449 157.78 39.0903V38.9059C157.165 38.2708 156.612 37.5844 156.089 36.9083" fill="#A0A0A0"/>
<path d="M157.923 39.039V39.2234C158.476 39.7766 158.999 40.3298 159.583 40.8522V40.6985C158.999 40.1454 158.446 39.5922 157.923 39.039Z" fill="#A0A0A0"/>
<path d="M159.695 40.8082V40.9619C160.218 41.4229 160.74 41.8838 161.293 42.3141V42.1604C160.74 41.7302 160.218 41.2692 159.695 40.8082Z" fill="#A0A0A0"/>
<path d="M161.416 42.2495V42.4134C161.939 42.8026 162.492 43.1714 163.045 43.5402V43.3866C162.83 43.2636 162.615 43.1202 162.4 42.9666C162.092 42.7412 161.754 42.4953 161.447 42.2495" fill="#A0A0A0"/>
<path d="M163.147 43.4788V43.6017C163.67 43.9398 164.192 44.2471 164.745 44.5237V44.4008C164.223 44.1242 163.701 43.8169 163.178 43.4788" fill="#A0A0A0"/>
<path d="M164.838 44.4745V44.5974C164.838 44.5974 164.94 44.5974 164.94 44.6998C165.463 44.9457 165.924 45.2223 166.446 45.4989V45.3452C165.985 45.0994 165.493 44.8228 165.032 44.5769C164.93 44.5769 164.93 44.5769 164.879 44.4745" fill="#A0A0A0"/>
<path d="M166.528 45.3759V45.4989C167.081 45.8062 167.604 46.1442 168.157 46.4515V46.2979C167.634 45.9906 167.112 45.6833 166.559 45.3759" fill="#A0A0A0"/>
<path d="M168.249 46.383V46.506C168.802 46.844 169.324 47.1821 169.847 47.5201V47.3972C169.324 47.0591 168.802 46.7211 168.249 46.383Z" fill="#A0A0A0"/>
<path d="M169.96 47.474V47.6277C170.513 47.9657 171.035 48.3345 171.558 48.693V48.5496C171.035 48.2116 170.513 47.8428 169.96 47.474Z" fill="#A0A0A0"/>
<path d="M171.66 48.6397V48.7934C172.213 49.2032 172.767 49.6027 173.258 50.0022V49.8383C172.736 49.4388 172.213 49.0392 171.66 48.6397Z" fill="#A0A0A0"/>
<path d="M173.381 49.9325V50.0861C173.996 50.5471 174.518 51.0081 175.041 51.4691V51.3154C174.518 50.8544 173.965 50.3934 173.381 49.9325Z" fill="#A0A0A0"/>
<path d="M175.164 51.3954V51.5491C175.778 52.0818 176.301 52.594 176.792 53.0857V52.9013C176.301 52.4096 175.748 51.9179 175.164 51.3954Z" fill="#A0A0A0"/>
<path d="M176.895 53.0273V53.2219C177.571 53.898 178.124 54.5434 178.554 55.1273V54.9121C178.093 54.318 177.54 53.7136 176.895 53.0273Z" fill="#A0A0A0"/>
<path d="M152.156 28.6322V28.7859V28.9702L152.279 31.06V31.4595H152.401V31.3059L152.248 29.2468V29.0317V28.8781V28.6322H152.125H152.156Z" fill="#A0A0A0"/>
<path d="M153.836 30.2108L154.204 34.2059V34.421V34.5235V34.6259H154.307V34.4723L154.03 30.7537V30.5386V30.3849V30.2825H153.928L153.836 30.2108Z" fill="#A0A0A0"/>
<path d="M155.639 31.8221H155.536L155.966 36.7289V36.9441V37.1694H156.069V36.9543L155.669 32.0372V31.863L155.639 31.8221Z" fill="#A0A0A0"/>
<path d="M157.38 33.2307H157.278L157.739 38.8854V39.1005V39.3771H157.841H157.944V39.2235V39.0391L157.421 33.2615L157.38 33.2307Z" fill="#A0A0A0"/>
<path d="M162.492 36.4319H162.389L162.973 43.4081V43.531V43.7154H163.076H163.178V43.6129V43.4593L162.625 36.7597V36.3909H162.523L162.492 36.4319Z" fill="#A0A0A0"/>
<path d="M159.091 34.4712H158.988L159.542 40.6791V40.8635V40.9865H159.644H159.746V40.8328L159.193 34.502H159.091V34.4712Z" fill="#A0A0A0"/>
<path d="M160.73 35.467L161.314 42.1665V42.3202L161.416 42.7812V42.4124V42.2587L160.863 35.467H160.74H160.73Z" fill="#A0A0A0"/>
<path d="M164.182 37.3222H164.08L164.664 44.3905V44.5442V44.6466H164.786V44.493L164.172 37.3324H164.069L164.182 37.3222Z" fill="#A0A0A0"/>
<path d="M165.842 37.9265H165.739L166.385 45.2714V45.4251V45.671H166.487V45.5173V45.3637L165.842 37.9265Z" fill="#A0A0A0"/>
<path d="M167.358 37.4062L168.126 46.3184V46.4413V46.6565H168.228H168.331V46.5335V46.3799L167.563 37.4062H167.44H167.358Z" fill="#A0A0A0"/>
<path d="M169.058 38.2861L169.847 47.3828V47.5364V47.936H169.949V47.5979V47.475L169.15 38.2554H169.027L169.058 38.2861Z" fill="#A0A0A0"/>
<path d="M170.759 39.3351L171.537 48.5547V48.7084V49.1694H171.64H171.742V48.8313V48.6469L170.984 39.3659H170.851L170.759 39.3351Z" fill="#A0A0A0"/>
<path d="M172.48 40.5859L173.248 49.8362V49.9899V50.2665H173.371V50.0821V49.9284L172.603 40.5859H172.48Z" fill="#A0A0A0"/>
<path d="M174.303 42.2926H174.201L174.969 51.2766V51.461V51.8605H175.092V51.5839V51.4302L174.262 42.3233L174.303 42.2926Z" fill="#A0A0A0"/>
<path d="M176.106 44.1467H176.004L176.772 52.9156V53.0897V53.4073H176.874H176.977V53.2126V53.0283L176.27 44.454V44.3516V44.1467H176.106Z" fill="#A0A0A0"/>
<path d="M177.899 46.9761L178.575 54.8742V55.1201V55.5811H178.677H178.78V55.1201L178.104 47.2834V46.9761H178.001H177.899Z" fill="#A0A0A0"/>
</svg>
