<svg width="511" height="121" viewBox="0 0 511 121" fill="none" xmlns="http://www.w3.org/2000/svg">
<g clip-path="url(#clip0_107_37)">
<mask id="mask0_107_37" style="mask-type:luminance" maskUnits="userSpaceOnUse" x="0" y="0" width="511" height="121">
<path d="M511 0H0V121H511V0Z" fill="white"/>
</mask>
<g mask="url(#mask0_107_37)">
<path d="M99.4956 69.4108H91.1422L81.9309 94.9197L72.366 69.4108H63.9448L78.3638 104.856C76.4372 110.206 75.6546 112.016 73.585 112.851C72.0123 113.474 69.7998 113.474 67.1583 112.089L65.021 117.717C67.5872 119.315 71.1544 120.077 74.6537 119.241C81.9309 118.413 83.2855 112.5 86.0022 105.413L99.4956 69.4108ZM49.8947 68.297C44.401 68.297 38.4031 71.3528 35.4757 75.1781C33.9029 70.2463 30.3358 68.297 25.4817 68.297C20.3418 68.297 14.8481 70.9351 11.7025 74.3425C11.3488 70.0338 9.48996 68.92 6.41952 68.92C4.06404 68.92 1.64081 69.6161 -0.0072937 70.173V75.8008C0.85062 75.6616 1.56554 75.5957 2.20522 75.6616C3.20612 75.8008 3.70281 76.3579 3.70281 77.6109V104.849H11.7777V79.9705C13.9902 77.6769 18.2723 75.5224 22.1254 75.4565C28.2587 75.4565 28.2588 81.0843 28.2588 85.188V104.856H36.3261V80.0437C38.5385 77.7501 42.7529 75.5224 46.606 75.4565C52.7392 75.4565 52.7392 80.8059 52.7392 85.188V104.856H60.8068V81.7146C60.8068 71.9831 56.5247 68.297 49.887 68.297" fill="#646464"/>
<path d="M324.811 69.4108H316.457L307.253 94.9197L297.689 69.4108H289.268L303.686 104.856C301.759 110.206 300.977 112.016 298.908 112.851C297.335 113.474 295.122 113.474 292.48 112.089L290.336 117.717C292.909 119.315 296.477 120.077 299.969 119.241C307.253 118.413 308.608 112.5 311.317 105.413L324.803 69.4108H324.811ZM259.699 86.2286C259.842 79.3476 263.839 75.0388 269.836 74.8996C274.766 74.7604 278.401 77.6769 279.544 82.5426L259.699 86.2286ZM270.122 99.2944C264.989 99.4338 261.559 96.4439 260.414 91.7173L287.469 86.5071C287.325 75.3173 280.049 68.297 270.265 68.297C260.482 68.297 252.422 75.4565 252.422 87.064C252.422 98.6716 259.413 105.97 270.122 105.97C277.98 105.97 283.97 101.801 286.829 95.1248L280.267 92.4867C278.416 96.6564 274.917 99.2944 270.129 99.2944M235.226 68.297C230.155 68.297 224.592 70.8691 221.521 74.2694C221.093 70.0338 219.377 68.92 216.24 68.92C213.96 68.92 211.529 69.6161 209.888 70.173V75.8008C210.746 75.6616 211.46 75.5957 212.032 75.6616C213.033 75.8008 213.531 76.3579 213.531 77.6109V104.849H221.598V79.8313C223.878 77.6109 228.091 75.5224 231.877 75.4565C238.011 75.4565 238.011 80.8059 238.011 85.188V104.856H246.078V81.7146C246.078 71.9831 241.796 68.297 235.233 68.297M188.635 75.3173C194.92 75.3173 198.915 79.9705 198.915 87.064C198.915 94.1576 194.92 98.9501 188.635 98.9501C182.352 98.9501 178.43 94.2895 178.43 87.064C178.43 79.8386 182.36 75.3173 188.635 75.3173ZM188.635 68.297C178.212 68.297 170.792 76.0134 170.792 87.064C170.792 98.1147 178.212 105.97 188.635 105.97C199.058 105.97 206.555 98.1879 206.555 87.064C206.555 75.9401 199.058 68.297 188.635 68.297ZM153.529 68.297C148.035 68.297 142.037 71.3528 139.11 75.1781C137.537 70.2463 133.97 68.297 129.116 68.297C123.976 68.297 118.482 70.9351 115.337 74.3425C114.983 70.0338 113.124 68.92 110.054 68.92C107.698 68.92 105.275 69.6161 103.627 70.173V75.8008C104.485 75.6616 105.2 75.5957 105.839 75.6616C106.84 75.8008 107.337 76.3579 107.337 77.6109V104.849H115.404V79.9705C117.617 77.6769 121.899 75.5224 125.752 75.4565C131.885 75.4565 131.885 81.0843 131.885 85.188V104.856H139.953V80.0437C142.165 77.7501 146.372 75.5224 150.233 75.4565C156.366 75.4565 156.366 80.8059 156.366 85.188V104.856H164.433V81.7146C164.433 71.9831 160.151 68.297 153.514 68.297" fill="#A3A3A3"/>
<path d="M489.499 0.0218811C477.76 0.0218811 468.248 9.18188 468.248 20.489C468.248 31.7961 477.76 40.9561 489.499 40.9561C501.239 40.9561 510.752 31.7961 510.752 20.489C510.752 9.18188 501.239 0.0218811 489.499 0.0218811ZM489.499 29.2314C484.48 29.2314 480.416 25.3181 480.416 20.489C480.416 15.6598 484.488 11.7394 489.499 11.7394C494.512 11.7394 498.584 15.6525 498.584 20.489C498.584 25.3254 494.512 29.2314 489.499 29.2314Z" fill="#A3A3A3"/>
<path d="M404.657 20.4744C404.657 10.7868 397.666 2.68201 388.281 0.5569V13.1024C390.81 14.656 392.488 17.3747 392.488 20.4744C392.488 23.5742 390.81 26.2928 388.281 27.8464V40.3919C397.666 38.2668 404.657 30.1547 404.657 20.4744Z" fill="#A3A3A3"/>
<path d="M367.127 20.416C367.127 12.5091 362.468 5.65738 355.65 2.24986V38.5894C362.468 35.1819 367.127 28.323 367.127 20.4233" fill="#A3A3A3"/>
<path d="M429.303 3.4299e-05C427.707 3.4299e-05 426.15 0.175906 424.651 0.498338V12.9633C426.014 12.1792 427.602 11.7175 429.303 11.7175C434.323 11.7175 438.386 15.6307 438.386 20.4598C438.386 25.289 434.316 29.2094 429.303 29.2094C427.602 29.2094 426.014 28.7478 424.651 27.9637V40.4286C426.15 40.751 427.707 40.927 429.303 40.927C441.042 40.927 450.563 31.767 450.563 20.4598C450.563 9.15271 441.042 -0.0072937 429.303 -0.0072937" fill="#A3A3A3"/>
<path d="M334.85 81.7513C334.85 85.2321 337.348 87.3866 342.781 87.3866C348.215 87.3866 350.503 85.3715 350.503 81.8174C350.503 78.2633 347.861 75.7644 342.646 75.7644C337.43 75.7644 334.857 78.0653 334.857 81.7513M331.921 108.682C331.921 112.72 335.993 114.669 343.21 114.669C348.855 114.669 352.715 113.21 352.715 109.173C352.715 105.97 349.216 104.857 343.278 104.505C340.132 104.3 337.777 104.021 336.062 103.669C334.127 104.571 331.914 106.242 331.914 108.682M351.714 71.309C353.288 69.499 357.719 69.7114 359.865 71.1038V75.6985C358.653 75.42 357.005 75.42 356.29 75.9769C357.223 77.5744 357.863 79.6703 357.863 81.7513C358.074 89.4018 352.429 93.7913 342.639 93.7913C339.921 93.7913 337.844 93.4468 335.844 92.8167C334.345 93.161 333.773 94.3482 333.841 95.1835C334.052 98.1075 339.485 98.1734 345.702 98.5984C352.557 99.0821 359.707 100.826 359.707 109.173C359.707 117.519 353.061 121 343.128 121C333.841 121 325.329 118.282 325.329 109.656C325.329 105.201 328.4 102.834 331.125 101.515C328.912 100.401 327.626 98.2468 327.549 96.019C327.549 93.5128 328.912 91.6369 331.343 90.6622C328.836 88.5738 327.482 85.5107 327.482 81.8247C327.482 74.2402 332.84 69.3671 342.917 69.3671C346.349 69.3671 349.276 69.99 351.707 71.3164" fill="#646464"/>
<path d="M374.795 75.3464C377.226 70.4732 383.299 68.2455 389.448 70.825L386.806 77.9918C384.804 77.2957 382.945 76.8779 380.876 77.4349C377.873 78.0577 376.157 79.941 374.869 81.9563V105.963H366.795V78.6879C366.795 77.4349 366.291 76.8779 365.222 76.7386C364.726 76.6728 363.935 76.7386 363.077 76.8779V71.2354C364.718 70.6785 367.149 69.9822 369.437 69.9822C372.507 69.9822 374.366 71.0228 374.795 75.3391" fill="#646464"/>
<path d="M397.455 88.1561C397.455 95.3961 401.383 100.057 407.673 100.057C413.965 100.057 417.97 95.3229 417.97 88.1561C417.97 80.9893 413.965 76.3946 407.673 76.3946C401.383 76.3946 397.455 81.0552 397.455 88.1561ZM425.608 88.1561C425.608 99.2945 418.104 107.084 407.666 107.084C397.228 107.084 389.8 99.2872 389.8 88.1561C389.8 77.0249 397.237 69.3671 407.666 69.3671C418.097 69.3671 425.608 77.0907 425.608 88.1561Z" fill="#646464"/>
<path d="M432.177 93.6521V70.4809H440.185V90.1711C440.185 94.5533 440.185 99.9175 446.4 99.9175C450.194 99.8514 454.333 97.7631 456.62 95.462V70.4809H464.696V97.7557C464.696 99.0088 465.267 99.5657 466.193 99.7049C466.833 99.7782 467.555 99.7049 468.406 99.5657V105.201C466.766 105.758 464.335 106.454 461.971 106.454C458.9 106.454 457.185 105.34 456.756 101.097C453.611 104.505 448.11 107.084 443.037 107.084C436.393 107.084 432.177 103.398 432.177 93.6521Z" fill="#646464"/>
<path d="M483.343 94.9051C485.849 98.4519 489.777 100.049 493.276 100.049C499.494 100.049 503.422 95.4548 503.422 88.288C503.422 81.1212 499.494 76.4605 493.202 76.4605C488.198 76.4605 483.336 79.9414 483.336 84.3968V94.9051H483.343ZM475.269 78.4098C475.269 77.23 474.771 76.5997 473.77 76.5338C473.123 76.4605 472.409 76.5338 471.559 76.6731V71.0378C473.199 70.4809 475.629 69.7847 477.993 69.7847C480.852 69.7847 482.282 70.8253 482.568 74.6579C485.217 71.5288 489.288 69.3671 494.074 69.3671C504.22 69.3671 511.007 77.7137 511.007 88.222C511.007 98.7303 504.22 107.084 494 107.084C489.499 107.084 485.856 105.201 483.351 102.768V119.886H475.276V78.4098H475.269Z" fill="#646464"/>
</g>
</g>
<defs>
<clipPath id="clip0_107_37">
<rect width="511" height="121" fill="white"/>
</clipPath>
</defs>
</svg>
