<svg width="371" height="371" viewBox="0 0 371 371" fill="none" xmlns="http://www.w3.org/2000/svg">
<g clip-path="url(#clip0_107_109)">
<mask id="mask0_107_109" style="mask-type:luminance" maskUnits="userSpaceOnUse" x="0" y="0" width="371" height="371">
<path d="M371 0H0V371H371V0Z" fill="white"/>
</mask>
<g mask="url(#mask0_107_109)">
<path d="M269.54 101.315V269.811H101.062V370.909H371.001V101.315H269.54Z" fill="#727171"/>
<path d="M167.824 336.919C167.824 339.465 169.424 341.811 172.261 341.811C175.353 341.811 178.354 340.52 181.391 337.864V328.972C172.207 330.118 167.824 332.464 167.824 336.919ZM181.627 344.793C177.808 347.358 173.716 348.54 169.279 348.54C162.241 348.54 158.149 343.903 158.149 337.629C158.149 329.262 165.805 324.825 181.7 323.043V320.952C181.7 318.224 179.627 316.642 175.862 316.642C172.007 316.642 168.952 318.132 166.715 320.952L160.04 317.151C163.55 312.277 168.879 309.84 176.008 309.84C185.756 309.84 191.248 314.059 191.248 320.969C191.248 320.969 191.193 348.086 191.248 348.158H182.519L181.627 344.793Z" fill="white"/>
<path d="M199.013 311.585L207.197 310.458L208.07 314.914C212.653 311.531 216.345 309.73 220.909 309.73C228.62 309.73 232.603 313.805 232.603 321.916V348.031H222.746V323.662C222.746 319.042 221.546 316.987 217.981 316.987C215.053 316.987 212.107 318.333 208.779 321.151V348.031H199.013V311.585Z" fill="white"/>
<path d="M240.115 348.031V296.128H249.044V325.098H249.353L261.374 310.658H272.523L260.502 324.607L273.377 348.049H263.011L253.973 331.3L249.026 336.556V348.049H240.115V348.031Z" fill="white"/>
<path d="M151.62 320.534C150.711 318.061 149.51 316.024 148.055 314.442C146.582 312.86 144.946 311.678 143.127 310.914C141.308 310.15 139.453 309.75 137.58 309.75C135.27 309.75 133.052 310.205 130.906 311.078C128.76 311.969 127.068 313.369 125.832 315.297H125.686V296.165H116.739V348.014H124.341L125.195 343.34V343.249H125.341C126.45 345.322 128.087 346.795 130.251 347.687C132.415 348.578 134.87 349.014 137.598 349.014C139.472 349.014 141.327 348.632 143.145 347.868C144.964 347.105 146.619 345.904 148.074 344.304C149.547 342.685 150.729 340.649 151.638 338.175C152.547 335.702 153.002 332.756 153.002 329.355C152.984 325.954 152.529 323.008 151.62 320.534ZM142.927 333.901C142.581 335.338 142.054 336.611 141.345 337.721C140.617 338.83 139.708 339.703 138.599 340.357C137.489 341.012 136.198 341.321 134.707 341.321C133.161 341.321 131.851 340.994 130.778 340.357C129.705 339.703 128.796 338.83 128.069 337.721C127.341 336.611 126.814 335.338 126.487 333.901C126.141 332.465 125.977 330.973 125.977 329.428C125.977 327.845 126.141 326.336 126.487 324.881C126.814 323.444 127.359 322.171 128.069 321.062C128.796 319.952 129.687 319.08 130.778 318.425C131.851 317.77 133.161 317.443 134.707 317.443C136.198 317.443 137.489 317.77 138.599 318.425C139.708 319.08 140.617 319.952 141.345 321.062C142.072 322.171 142.6 323.444 142.927 324.881C143.254 326.318 143.436 327.827 143.436 329.428C143.418 330.973 143.254 332.465 142.927 333.901Z" fill="white"/>
<path d="M272.453 0H0V272.453H272.453V0Z" fill="#A9A9A9"/>
<path d="M91.604 235.822C91.604 238.368 93.2045 240.713 96.0415 240.713C99.1329 240.713 102.134 239.422 105.153 236.767V227.892C95.969 229.019 91.604 231.384 91.604 235.822ZM105.39 243.696C101.57 246.261 97.4785 247.443 93.041 247.443C86.021 247.443 81.929 242.805 81.929 236.53C81.929 228.183 89.5855 223.727 105.462 221.945V219.854C105.462 217.126 103.407 215.543 99.6239 215.543C95.769 215.543 92.7135 217.035 90.4765 219.854L83.8205 216.053C87.3305 211.179 92.659 208.742 99.788 208.742C109.536 208.742 115.028 212.961 115.028 219.854C115.028 219.854 114.973 246.952 115.028 247.024H106.298L105.39 243.696Z" fill="#727171"/>
<path d="M122.774 210.506L130.958 209.378L131.831 213.834C136.414 210.451 140.106 208.669 144.671 208.669C152.382 208.669 156.346 212.724 156.346 220.854V246.951H146.489V222.6C146.489 217.98 145.289 215.925 141.725 215.925C138.797 215.925 135.869 217.271 132.541 220.072V246.951H122.774V210.506Z" fill="#727171"/>
<path d="M228.91 223.291C228.91 218.271 226.055 215.326 221.399 215.326C216.943 215.326 214.143 218.198 213.743 223.291H228.91ZM221.508 247.66C210.487 247.66 203.904 240.604 203.904 228.237C203.904 215.743 210.578 208.651 221.381 208.651C232.129 208.651 238.567 215.561 238.567 227.728C238.567 228.383 238.458 229.019 238.458 229.674H213.579C213.67 236.785 216.598 240.349 222.399 240.349C226.109 240.349 228.583 238.859 230.892 235.548L238.094 239.567C234.948 244.86 229.237 247.66 221.508 247.66Z" fill="#727171"/>
<path d="M33.0622 216.835C25.6786 216.835 24.2964 223.491 24.2964 228.311C24.2964 233.094 25.6604 239.732 33.0622 239.732C40.3913 239.732 41.737 233.094 41.737 228.311C41.737 223.491 40.4095 216.835 33.0622 216.835ZM33.0622 248.079C23.3144 248.079 14.5304 241.878 14.5304 228.311C14.5304 214.726 23.3144 208.524 33.0622 208.524C42.7737 208.524 51.5758 214.726 51.5758 228.311C51.5758 241.878 42.7737 248.079 33.0622 248.079Z" fill="#727171"/>
<path d="M58.3044 209.506H67.6518V213.907C69.4344 211.542 73.8354 208.724 77.9819 208.724C78.3639 208.724 78.8549 208.724 79.2184 208.779V218.017H78.7639C74.4898 218.017 69.8344 218.671 68.2883 222.018V246.933H58.3044V209.506Z" fill="#727171"/>
<path d="M197.993 209.379V244.86C197.993 251.153 197.52 261.427 179.679 261.555C172.332 261.573 165.512 258.645 164.148 252.207L173.878 250.625C174.296 252.48 175.424 254.335 180.934 254.335C186.008 254.335 188.463 251.88 188.463 245.988V241.678L188.318 241.532C186.736 244.315 184.39 246.969 178.643 246.969C169.95 246.969 163.075 240.914 163.075 228.237C163.075 215.726 170.168 208.688 178.115 208.669C185.572 208.651 188.354 212.07 188.991 213.87L188.863 213.853L189.664 209.379H197.993ZM180.425 238.95C187.899 238.895 188.536 231.274 188.536 226.31C188.536 220.435 185.663 215.671 180.352 215.671C176.842 215.671 172.878 218.271 172.878 226.71C172.896 231.33 173.205 238.967 180.425 238.95Z" fill="#727171"/>
<path d="M258.61 207.669H256.536V197.321H256.464L252.408 207.669H251.099L247.043 197.321H247.007V207.669H244.988V195.266H248.116L251.808 204.669L255.427 195.266H258.591V207.669H258.61ZM242.442 196.939H238.587V207.687H236.531V196.939H232.658V195.284H242.442V196.939Z" fill="#727171"/>
</g>
</g>
<defs>
<clipPath id="clip0_107_109">
<rect width="371" height="371" fill="white"/>
</clipPath>
</defs>
</svg>
