<svg width="852" height="285" viewBox="0 0 852 285" fill="none" xmlns="http://www.w3.org/2000/svg">
<g clip-path="url(#clip0_107_3)">
<rect width="852" height="285" fill="white"/>
<path d="M853.209 0.639771H0.141724V284.996H853.209V0.639771Z" fill="#9B9B9B"/>
<path d="M189.523 144.239C180.281 137.984 175.874 136.988 141.467 128.173L136.064 126.752C116.728 122.202 107.628 117.51 107.628 103.861C107.628 88.0791 120.709 78.6954 142.604 78.6954C163.788 78.6954 174.878 86.6574 175.731 102.297C175.731 103.008 176.442 103.719 177.153 103.719H200.755C201.181 103.719 201.608 103.577 201.75 103.292C202.034 103.008 202.177 102.581 202.177 102.155V101.444C201.75 94.6193 201.039 83.2451 191.798 73.2926C178.433 58.7905 156.537 56.6578 144.594 56.6578C112.747 56.6578 80.6144 71.8709 80.6144 106.136C80.6144 120.354 86.5859 131.728 98.3867 139.548C107.06 145.377 118.434 148.22 143.457 154.334C166.348 160.021 179.997 163.433 179.997 180.637C179.997 185.329 178.148 208.504 143.031 208.504C106.206 208.504 105.353 188.315 104.927 177.367C104.927 176.514 104.216 175.945 103.505 175.945H79.9035C79.0505 175.945 78.4818 176.656 78.4818 177.367C78.4818 184.902 78.4817 198.694 88.292 211.49C101.372 228.267 126.538 230.684 140.329 230.684C180.565 230.684 206.584 210.068 206.584 178.078C206.442 163.291 200.613 151.633 189.523 144.239Z" fill="white"/>
<path d="M341.369 59.9279C341.084 59.3592 340.658 58.9327 340.089 58.9327H315.635C315.066 58.9327 314.497 59.217 314.355 59.7857L245.114 224.001C244.972 224.428 244.972 224.996 245.256 225.423C245.541 225.85 245.967 226.134 246.536 226.134H269.995C270.564 226.134 271.133 225.85 271.275 225.281L288.621 183.481H362.838L380.183 225.281C380.468 225.85 381.036 226.134 381.605 226.134H406.344C406.771 226.134 407.339 225.85 407.624 225.423C407.908 224.996 407.908 224.428 407.766 224.001L341.369 59.9279ZM354.876 162.012H297.151L326.724 86.9417L354.876 162.012Z" fill="white"/>
<path d="M523.641 56.6578C497.053 56.6578 477.149 67.0368 464.495 87.5104C452.125 107.558 450.277 131.728 450.277 144.382C450.277 164.144 455.395 228.551 520.655 228.551C547.384 228.551 579.801 216.181 583.498 181.49C583.498 181.064 583.356 180.637 583.071 180.353C582.787 180.068 582.36 179.926 581.934 179.926H556.91C556.199 179.926 555.631 180.353 555.489 181.064C554.92 184.476 553.64 191.442 547.953 197.556C541.982 203.67 533.309 206.94 522.361 206.94C485.253 206.94 477.433 172.675 477.433 144.097C477.433 119.358 483.262 77.8424 522.646 77.8424C542.408 77.8424 553.782 86.9417 556.626 104.998C556.768 105.709 557.337 106.278 558.048 106.278H582.36C583.213 106.278 583.782 105.567 583.782 104.856C583.782 104.714 583.782 104.43 583.64 104.287C580.228 60.0701 536.863 56.6578 523.641 56.6578Z" fill="white"/>
<path d="M759.941 80.8281C741.315 58.9327 714.301 58.9327 692.69 58.9327H645.203C644.35 58.9327 643.781 59.6436 643.781 60.3545V224.57C643.781 225.423 644.492 225.992 645.203 225.992H691.411C715.439 225.992 736.197 225.992 752.832 212.2C759.372 206.94 780.698 186.608 780.698 143.813C780.556 118.363 773.447 96.6098 759.941 80.8281ZM753.258 144.808C753.258 168.125 746.149 185.187 732.216 195.708C721.41 203.812 704.775 204.523 690.131 204.523H669.231V80.8281H695.107C714.159 80.8281 727.24 83.1029 737.619 94.6193C751.694 110.117 753.258 134.856 753.258 144.808Z" fill="white"/>
</g>
<defs>
<clipPath id="clip0_107_3">
<rect width="852" height="285" fill="white"/>
</clipPath>
</defs>
</svg>
